<svg id="Layer_1" data-name="Layer 1" xmlns="http://www.w3.org/2000/svg" viewBox="0 0 246 306.28"><defs><clipPath id="clip-path" transform="translate(.02 9.92)"><path fill="none" d="M-.02-.93h247.5v247.5H-.02z"/></clipPath><style>.cls-3{fill:#002b78}</style></defs><g clip-path="url(#clip-path)"><g id="logo"><g id="Layer_1-2" data-name="Layer 1-2"><path class="cls-3" d="M181.38 30.35c.3-.86.59-1.71.88-2.57s.59-1.72.87-2.59c.58-1.72 1.13-3.45 1.68-5.18.22-.67.4-1.34.58-2 2.14-8.45 1.12-17 0-25.56-.1-.74-.13-1.49-.19-2.23l.66-.14c1.3 5.37 2.83 10.7 3.83 16.13a112.76 112.76 0 011.37 13.33 4.28 4.28 0 00.82 2.57 1.7 1.7 0 00.22.24 2.74 2.74 0 00.45.39l.14.1a2 2 0 00.31.16 26.89 26.89 0 012.28 1.55l.52.4c-4.8 1.75-9.64 3.56-14.42 5.4zM197.43 26.2l-.18.38c-.09.2-.19.39-.3.59-.2.39-.43.8-.67 1.21l-.38.62a4.94 4.94 0 01-.27.42c-.41.64-.85 1.29-1.34 1.95l-.49.66-.34.45c-.34.44-.7.9-1.08 1.36s-.81 1-1.23 1.46l-.42.49c-.42.47-.85 1-1.29 1.44l-.29.31c-.43.47-.87.93-1.33 1.4-.45.47-.91.93-1.37 1.39s-.84.83-1.26 1.23l-.64.61-.48.46-.51.47-1 .88c-1.76 1.58-3.56 3.1-5.35 4.51-.45.36-.9.7-1.35 1l-.62.47-.7.52-.66.47-1.31.92c-.44.29-.86.58-1.29.85l-.63.41-1.24.75-.61.36c-.2.11-.4.23-.6.33-.79.44-1.55.83-2.28 1.15l-.38.17-.4.17-.29.12c-.33.13-.66.25-1 .35l-.35.1-.44.13-.34.08h-.25l-.44.08 7.1-5.85c.48-.41 1-.82 1.42-1.24.65-.6 1.28-1.2 1.88-1.84.79-.83 1.55-1.71 2.25-2.61l.41-.56c.28-.38.54-.76.79-1.15l.31-.5a.78.78 0 00.11-.18c.1-.15.19-.31.28-.47a.77.77 0 00.1-.18c.21-.36.4-.73.58-1.1l.3-.63c.1-.21.19-.43.28-.65l.27-.66c.36-1 .73-1.93 1.08-2.9l1.06-2.91q8.24-3.9 16.47-7.82zM234.58 22.79c-.86 10.86-6.14 18.9-15.85 23.59l-.24.12A68.23 68.23 0 01196 53.29a4 4 0 01-2.27-.25c1.4-.49 2.81-1 4.21-1.46 5.81-2 11.77-3.69 16.87-7.39a10.85 10.85 0 011.11-.7c1.56-.87 3.29-1.49 4.76-2.48a30.66 30.66 0 0011.75-13.94c.63-1.47 1.44-2.86 2.15-4.28zM207 34.2c.52.62 1 1.17 1.51 1.8-5.33 4.27-10.53 8.53-17.1 10.91A63.43 63.43 0 00205 32.4a39 39 0 006.06-26.74c4.57 5 2.6 18.3-4.13 28.49zM237.76 53a55.2 55.2 0 01-3.95 10.87 6.8 6.8 0 00-.83 5c-1-2.07-2.13-4.11-3.29-6.12A33.27 33.27 0 00236.11 51a18.43 18.43 0 011.74-4c0 2 .42 4.13-.09 6zM145.66 185c2.68.91 4.37 2.21 3.93 5s-2.19 4.46-4.84 5.61c-4.86 2.11-9.06.79-13.46-1.52a11.69 11.69 0 001.09 1.33 4.87 4.87 0 011.19 6.39c-1.27 2.39-3 4.23-5.87 4.09-3.24-.15-6.47-.49-9.58-.75.29 2.89-1.23 4.52-4.8 3.69-8-1.87-14-6.83-18.55-13.55a6.85 6.85 0 01-.43-1c2.65 2.15 5.09 4.25 7.67 6.16a15.61 15.61 0 004 2.05c5.24 1.89 7.47.16 6.61-5.09 2.39 1 4.71 2.09 7.15 2.86a14.3 14.3 0 004.74.5c2.92-.14 4-2 3-4.68-1.24-3.2-2.55-6.37-3.88-9.68 1.78 1 3.53 2 5.22 3 3.2 2 6.74 2.18 10.29 1.84 1-.1 2.57-.91 2.75-1.66a4.25 4.25 0 00-1.11-3.32 41.55 41.55 0 00-4.74-3.83c4.06 0 8.21.26 12.31-.07 4.52-.35 7.61-2.88 8.69-7.56.43 6.54-3.73 9.26-11.38 10.19zM177.53 86.44a23.19 23.19 0 01-2 1.69c.34.37.49.67.66.69 3.84.4 5 1.45 4.34 5.24a20.18 20.18 0 01-1.32 4.28c-.51 1.25-1.11 2.47-1.72 3.66a29.19 29.19 0 01-7.66 9.84l-.52-.38c.43-.61.91-1.2 1.28-1.84 2-3.33 4.29-6.51 5.74-10.06 2.22-5.47-.33-8.48-6.24-8-.5 0-1 .1-2.22.23 1.57-1.93 2.8-3.29 3.85-4.78.49-.69 1-1.38 1.48-2.08 1.1-1.53 2.18-3 3.26-4.59 1.72-2.46 3.42-4.94 5-7.47.7-1.11.86-3.41.17-4.34s-2.77-1-4.22-1-3.06.76-4.67 1c3.44-1.68 6.74-3.85 10.79-3.69 2.8.1 4.17 2.29 3.33 5.28A39.67 39.67 0 01178.73 85a16.26 16.26 0 01-1.2 1.44zM46.9 125.13a13.74 13.74 0 00-3.33-.87c-.78 0-1.54.71-2.36.91a8.72 8.72 0 01-3.54.53c-1.13-.24-2.09-1.21-3.74-2.26 4.67.32 9.16-3.44 12.97 1.69z" transform="translate(.02 9.92)"/><path class="cls-3" d="M46.9 125.13a13.74 13.74 0 00-3.33-.87c-.78 0-1.54.71-2.36.91a8.72 8.72 0 01-3.54.53c-1.13-.24-2.09-1.21-3.74-2.26 4.67.32 9.16-3.44 12.97 1.69zM133.72 246.61l-1.44.11c-.21-.65-.41-1.31-.63-2l.75-.22zM145.66 185c2.68.91 4.37 2.21 3.93 5s-2.19 4.46-4.84 5.61c-4.86 2.11-9.06.79-13.46-1.52a11.69 11.69 0 001.09 1.33 4.87 4.87 0 011.19 6.39c-1.27 2.39-3 4.23-5.87 4.09-3.24-.15-6.47-.49-9.58-.75.29 2.89-1.23 4.52-4.8 3.69-8-1.87-14-6.83-18.55-13.55a6.85 6.85 0 01-.43-1c2.65 2.15 5.09 4.25 7.67 6.16a15.61 15.61 0 004 2.05c5.24 1.89 7.47.16 6.61-5.09 2.39 1 4.71 2.09 7.15 2.86a14.3 14.3 0 004.74.5c2.92-.14 4-2 3-4.68-1.24-3.2-2.55-6.37-3.88-9.68 1.78 1 3.53 2 5.22 3 3.2 2 6.74 2.18 10.29 1.84 1-.1 2.57-.91 2.75-1.66a4.25 4.25 0 00-1.11-3.32 41.55 41.55 0 00-4.74-3.83c4.06 0 8.21.26 12.31-.07 4.52-.35 7.61-2.88 8.69-7.56.43 6.54-3.73 9.26-11.38 10.19zM177.53 86.44a23.19 23.19 0 01-2 1.69c.34.37.49.67.66.69 3.84.4 5 1.45 4.34 5.24a20.18 20.18 0 01-1.32 4.28c-.51 1.25-1.11 2.47-1.72 3.66a29.19 29.19 0 01-7.66 9.84l-.52-.38c.43-.61.91-1.2 1.28-1.84 2-3.33 4.29-6.51 5.74-10.06 2.22-5.47-.33-8.48-6.24-8-.5 0-1 .1-2.22.23 1.57-1.93 2.8-3.29 3.85-4.78.49-.69 1-1.38 1.48-2.08 1.1-1.53 2.18-3 3.26-4.59 1.72-2.46 3.42-4.94 5-7.47.7-1.11.86-3.41.17-4.34s-2.77-1-4.22-1-3.06.76-4.67 1c3.44-1.68 6.74-3.85 10.79-3.69 2.8.1 4.17 2.29 3.33 5.28A39.67 39.67 0 01178.73 85a16.26 16.26 0 01-1.2 1.44zM195.79 25c-4.82 1.74-9.6 3.55-14.38 5.39.3-.86.59-1.71.87-2.57s.59-1.72.87-2.58q.87-2.58 1.69-5.18c.21-.67.4-1.34.57-2 2.21 1.31 4.38 2.67 6.49 4.1l.22.24a4.19 4.19 0 00.45.39l.14.1.29.11c.79.48 1.54 1 2.28 1.55l.52.41zM197.43 26.2c0 .13-.12.26-.18.38s-.19.39-.3.59c-.2.39-.43.8-.67 1.21l-.38.62a4.94 4.94 0 01-.27.42c-.41.64-.85 1.29-1.34 1.95l-.49.66-.34.45c-.34.44-.7.9-1.08 1.36s-.81 1-1.23 1.46l-.42.49c-.42.47-.85 1-1.29 1.44l-.29.31c-.43.47-.87.93-1.33 1.4-.45.47-.91.93-1.37 1.39s-.84.83-1.26 1.23l-.64.61-.48.46-.51.47-1 .88c-1.76 1.58-3.56 3.1-5.35 4.51-.45.36-.9.7-1.35 1l-.62.47-.7.52-.66.47-1.31.92c-.44.29-.86.58-1.29.85l-.63.41-1.24.75-.61.36c-.2.11-.4.23-.6.33-.79.44-1.55.83-2.28 1.15l-.38.17-.4.17-.29.12c-.33.13-.66.25-1 .35l-.35.1-.44.13-.34.08h-.25l-.44.08 7.1-5.85c.48-.41 1-.82 1.42-1.24.65-.6 1.28-1.2 1.88-1.84.79-.83 1.55-1.71 2.25-2.61l.41-.56c.28-.38.54-.76.79-1.15.11-.17.22-.34.31-.5a.78.78 0 00.11-.18c.1-.15.19-.31.28-.47a.77.77 0 00.1-.18c.21-.36.4-.73.58-1.1.11-.2.21-.42.3-.63a4.71 4.71 0 00.28-.65q.15-.33.27-.66c.37-1 .73-1.93 1.08-2.9s.72-1.94 1.06-2.91q8.24-3.9 16.47-7.82l.69.51zM208.53 36c-5.32 4.27-10.53 8.53-17.1 10.91a63 63 0 0013.62-14.51c.67.59 1.32 1.19 2 1.8a16 16 0 011.48 1.8zM174.1 12.19l-1.76-.79-1.25-.53-.82-.34c-.48-.21-1-.4-1.44-.59l-1.33-.53c-1.69-.66-3.4-1.28-5.11-1.86-.56-.21-1.1-.38-1.66-.56l-1.93-.61c-.64-.21-1.29-.4-1.94-.57L155 5.28h-.16l-1.55-.41-.5-.13.32.76-3.19 1.31.19.16a.8.8 0 01.21.2l.2.19.17.19a5.54 5.54 0 01.56.7l.15.22a9.93 9.93 0 011.18 2.53l.43 1.36c.29.95.58 1.9.85 2.86l.36 1.26c.2.78.41 1.55.59 2.32a4 4 0 00.17.74c.12.5.22 1 .33 1.5l.12.62 5.44 3.25q4.29 2.34 8.45 5l.74.48c.2-.41.4-.81.59-1.22l.36-.79c.63-1.35 1.21-2.69 1.74-4 .14-.36.29-.72.42-1.07q.69-1.77 1.23-3.42l.18-.57c.34-1.07.62-2.1.85-3.07 0-.23.09-.45.14-.66l.09-.43.06-.33a3.4 3.4 0 01.07-.46l.06-.38c.05-.31.09-.62.11-.91-.6-.32-1.23-.6-1.86-.89zm-25.35-8.43c-.45-.11-.91-.2-1.37-.29l-.76-.16-.76-.15-.76-.16c-1.61-.3-3.25-.56-4.89-.79a121.84 121.84 0 00-15.62-1.16h-5.68a128.79 128.79 0 00-14.68 1.38l-1.45.22-.29.06 1.35.26c3.9.83 7.78 1.75 11.64 2.8S123.15 8 127 9.25l3 1q9.59-3.48 19.31-6.47zm-34.06 4.31q-7.54-2.49-15.19-4.81a118.71 118.71 0 00-14 3.58c3.32.71 6.6 1.64 9.85 2.63a126.17 126.17 0 0116.87 6.68l1 .49 3.38-1.34q4.53-1.74 9.07-3.43c-3.67-1.31-7.32-2.53-10.98-3.8zM91.75 53.78c-1.93-4.71-3.9-9.48-5.77-14.25l-1.68-4.2-1.21.58-5 2.47Q69.48 42.67 61 47.15l-.09.51c-.21 1.27-.46 2.55-.66 3.83l-.54 3.84c-.19 1.3-.38 2.57-.51 3.86l-.45 3.88c-.07.64-.16 1.29-.21 1.93l-.15 1.94-.3 3.88q-.55 8.55-.41 17.1Q62.81 85 68 82.15c4.4-2.4 8.84-4.72 13.28-7s8.92-4.54 13.4-6.77l2.64-1.31zM69.61 144.6v4.14c.06.14.13.27.19.4l1 2q.11-.58.18-1.17c.11-.84.22-1.67.34-2.51a6.67 6.67 0 01.13-.88c.08-.57.17-1.13.26-1.69s.18-1.12.28-1.68zm29.88-72.41l-2.34 1.16C84 79.9 70.81 86.56 57.82 93.51a227.72 227.72 0 003.93 33.33 39.75 39.75 0 016.62 4.92 4.54 4.54 0 011.17 3q.08 4.48.07 9l2.57-1.64c.12-.7.27-1.4.42-2.09a2.73 2.73 0 01.14-.63l.17-.73c.06-.25.15-.63.23-1s.16-.62.25-.93l.18-.65c.26-.92.55-1.84.87-2.74.06-.19.13-.38.2-.57.24-.66.5-1.33.78-2 .07-.18.15-.36.23-.54l.24-.54c.08-.18.16-.36.25-.54l.26-.53.27-.53a10.46 10.46 0 01.56-1l.3-.53c.26-.45.53-.9.81-1.34l.48-.72c2-2.93 3.77-6 5.61-9 .32-.53.64-1 1-1.57l.55-.82c.23-.36.45-.72.69-1.08l.31-.49 1.12-1.68 1.26-1.87c.37-.55.75-1.08 1.13-1.62.57-.81 1.14-1.59 1.72-2.38.79-1.1 1.6-2.18 2.41-3.25 3.61-4.77 7.4-9.4 11.24-14q-3.24-7.26-6.37-14.56zm-62.85 71.63L46 155.49a35.34 35.34 0 00-3-6.78l-.42-.64c-.15-.21-.22-.33-.34-.5-.47-.68-1-1.34-1.48-2-.1-.14-.2-.26-.31-.39s-.3-.38-.46-.55-.41-.49-.63-.72a43.85 43.85 0 00-3.71-3.63l-.63-.53c-.29-.25-.59-.49-.89-.73l-.66-.52c-.26-.2-.52-.41-.79-.6s-.53-.4-.8-.6a122.71 122.71 0 003.92 12.57c.85 1.95 1.63 3.92 2.52 5.87-.41-3-.82-5.9-1.24-8.9-.08-1-.3-2-.44-3.02zm19.46-25.75a148.46 148.46 0 01-2.71-18.86q-.12-1.56-.21-3.09-4.53 2.43-9 4.95-3.85 2.15-7.67 4.39l-.88.61-5.24 3.85-1.41.94c0 2.47 0 5 .12 7.43 0 .67.06 1.33.1 2l.12-.14a1.54 1.54 0 01.19-.17l.15-.14a2.88 2.88 0 01.39-.3l.22-.15.23-.13.23-.13a2.77 2.77 0 01.46-.22h.06l.56-.22.29-.09.64-.19.3-.08.72-.15h.29a4.83 4.83 0 00.73-.12l.65-.08h1.16a27.92 27.92 0 013.17 0h.5l1.32.09 1.24.14 1.31.17.66.11a3.55 3.55 0 01.65.12l.45.08.37.08.66.14c.6.13 1.18.28 1.76.44l.49.14.76.23.54.17.68.24.59.22.58.23 1.12.49.54.26.52.27c.34.18.67.37 1 .56l.23.15c.24.15.47.3.69.46l.42.31.4.33c-.38-1.92-.77-3.65-1.14-5.34zm-26.82 2.81l-.28-.14c.05.6.12 1.19.19 1.78l.21.06 1.54.37 1.76.38c.06-.23.12-.46.19-.69zm9.79-61.53c-.67.39-1.33.79-2 1.2-1.56 5.52-3 11.14-4.09 16.77a186.81 186.81 0 00-3.17 20.4c-.25 2.55-.46 5.1-.59 7.66l.09-.06c4.16-2.82 8.41-5.49 12.67-8.13q5.46-3.37 11-6.59-.07-3.33 0-6.63a166.9 166.9 0 011.24-17q1.08-8.47 3-16.8l.27-1.12Q48.13 54 39.07 59.35zm22.73-42a125.25 125.25 0 00-12.14 8l.13.08C49.15 26.61 48.54 27.8 48 29c-1.16 2.85-2.27 5.73-3.34 8.62Q41.54 45.8 39 54.17q9.93-6.53 20.32-12.23c.09-.34.19-.66.28-1v-.09l.4-1.44c1.47-5 3.07-10.07 5-15a120.1 120.1 0 015.17-11.51q-4.28 2.1-8.37 4.42zm13.08-6.54q-2.16.91-4.28 1.92a167.74 167.74 0 00-8.22 27.34v.24c4.39-2.38 8.82-4.66 13.28-6.88 2.2-1.09 4.41-2.17 6.63-3.22-2.58-6.47-5.05-12.92-7.41-19.4zM57.34 123.37l-1.36-.3-.3-.08-3.14-.66c.94.38 1.87.77 2.78 1.17l.8.36.31.14 1.27.6a8.31 8.31 0 01-.36-1.23zm91.1-106.08v-2.93a5.28 5.28 0 00-.08-1.12v-.07c0-.46-.07-.91-.11-1.37l-.25-1.19v-.23c0-.44-.1-.88-.16-1.33l-.18-1.37c-3.92 1.61-7.83 3.25-11.74 4.89l2.19.85c1.86.75 3.69 1.55 5.53 2.34 1.61.75 3.23 1.47 4.81 2.26a5.93 5.93 0 000-.73zm-.6 3.64c-3.58-1.66-7.21-3.21-10.87-4.68-1.66-.7-3.34-1.34-5-2q-6.47 2.73-12.91 5.51 4.57 2.52 8.93 5.44c.64.41 1.27.84 1.89 1.27s1.26.86 1.88 1.31c1.21.9 2.46 1.79 3.65 2.73 2.42 1.84 4.75 3.8 7.05 5.8 1.28 1.12 2.54 2.26 3.78 3.44.16-.76.32-1.53.47-2.31.09-.43.17-.87.25-1.3s.15-.87.23-1.31.14-.89.2-1.32.11-.67.15-1c.1-.67.18-1.34.26-2 0-.34.09-.67.12-1s.08-.66.1-1 .06-.59.09-.88.06-.62.08-.94c.07-.88.13-1.75.18-2.63 0-.91.08-1.83.09-2.75v-.09zm4.59 31.73a1.08 1.08 0 01-.17.4c-.29.67-.61 1.34-.94 2-.15.32-.32.64-.48 1l.41-.16.33-.16.4-.21c.26-.17.54-.34.81-.53l.28-.2.32-.25.34-.28c-.43-.56-.86-1.09-1.3-1.61zM94.84 10.83c-1.68-.66-3.39-1.28-5.1-1.87a57.82 57.82 0 00-6.11-1.33v-.15c-2.84 1-5.64 2-8.38 3.17q4.6 9.24 9 18.56 5.75-2.73 11.63-5.29 7.08-3.12 14.24-6a130.6 130.6 0 00-15.28-7.09zm53.6 6.46v-2.93a5.28 5.28 0 00-.08-1.12v-.07c0-.46-.07-.91-.11-1.37l-.25-1.19v-.23c0-.44-.1-.88-.16-1.33l-.18-1.37c-3.92 1.61-7.83 3.25-11.74 4.89l2.19.85c1.86.75 3.69 1.55 5.53 2.34 1.61.75 3.23 1.47 4.81 2.26a5.93 5.93 0 000-.73zm-.6 3.64c-3.58-1.66-7.21-3.21-10.87-4.68-1.66-.7-3.34-1.34-5-2q-6.47 2.73-12.91 5.51 4.57 2.52 8.93 5.44c.64.41 1.27.84 1.89 1.27s1.26.86 1.88 1.31c1.21.9 2.46 1.79 3.65 2.73 2.42 1.84 4.75 3.8 7.05 5.8 1.28 1.12 2.54 2.26 3.78 3.44.16-.76.32-1.53.47-2.31.09-.43.17-.87.25-1.3s.15-.87.23-1.31.14-.89.2-1.32.11-.67.15-1c.1-.67.18-1.34.26-2 0-.34.09-.67.12-1s.08-.66.1-1 .06-.59.09-.88.06-.62.08-.94c.07-.88.13-1.75.18-2.63 0-.91.08-1.83.09-2.75v-.09zm-8.05 18.3a142.54 142.54 0 00-13.7-11.31c-3.33-2.43-6.75-4.68-10.24-6.78Q103 26.72 90.18 32.48l-2.08 1-1.45.7c.66 1.4 1.32 2.79 2 4.19 2.19 4.64 4.31 9.31 6.46 14L101 65.29q21.72-10.56 43.93-20.06l.21-.77c-1.76-1.78-3.53-3.53-5.33-5.23zm-36.58 31.13q2.85 6.38 5.64 12.79c3.23-3.81 6.46-7.61 9.64-11.45a16.13 16.13 0 015.71-4.06c2.55-1.17 4.34.22 4.27 3a47 47 0 01-.6 5l.55-.41.51-.42c.17-.15.33-.28.5-.44a19.47 19.47 0 001.67-1.63c.16-.18.33-.36.49-.55s.29-.32.42-.48l.41-.49.83-1c.16-.2.31-.4.46-.61l.53-.72a64.388 64.388 0 001.75-2.65c.11-.18.21-.34.31-.52l.51-.84c.33-.56.66-1.16 1-1.74v-.08c.29-.53.56-1.06.84-1.62.08-.15.15-.29.22-.44l.36-.72c.15-.33.31-.65.47-1s.31-.66.46-1l.45-1c.28-.64.56-1.3.83-2l.06-.15c.29-.71.56-1.43.84-2.16.22-.58.43-1.18.64-1.78q-19.92 9.45-39.77 19.17zm-72 38L29 109.71v.87l1.2-1 3.66-2.76zM164.22 41a.78.78 0 00-.11.18c-.57.91-1.14 1.8-1.72 2.66q-.25.39-.51.75-2 3-4.3 5.73c-.22.27-.44.52-.66.77-.52-.61-1-1.22-1.57-1.82-.39-.45-.78-.89-1.18-1.33.05-.14.09-.27.13-.41l.11-.39c.1-.34.2-.68.28-1a.29.29 0 000-.13 2.13 2.13 0 01.1-.42c0-.14.14-.53.2-.79q4.64-1.99 9.23-3.8zM169 32.5l-.33.65-.09.16-.82 1.55-.6 1.09-.26.46c-.28.52-.58 1-.87 1.54q-5.28 2.17-10.52 4.43c.11-.6.21-1.19.29-1.79a5.28 5.28 0 01.1-.66l.1-1.23.09-.92a1.77 1.77 0 010-.51 3.93 3.93 0 000-.77v-3.99c0-2-.1-4-.29-6.07a9.52 9.52 0 00-.11-1.06l-.06-.52c.83.43 1.67.87 2.5 1.32A102.54 102.54 0 01169 32.5zM84.12 227.12c-.49-.14-1-.27-1.46-.42l-1.26-.38-.17-.06-1.23-.41h-.07l-1.34-.47-1.25-.47-.17-.06-1.31-.5-1.35-.56-1.34-.58-.94-.43-1.49-.7-.68-.34-1-.49-1.06-.6-.28-.15-.32-.18-1.2-.67c-.4-.22-.8-.46-1.19-.69-.8-.48-1.59-1-2.38-1.47.7 1.36 1.12 3 2.15 4l.52.52.23.22c2 2 4.24 3.81 6.44 5.63s4.49 3.31 6.57 5.16a6.84 6.84 0 012.5 6.57l-1.12-.33c-.86-.32-1.73-.66-2.58-1a154.61 154.61 0 01-19.16-9.85l-.19-.12q-4.44-2.73-8.55-5.7h-.07a123.58 123.58 0 01-35-40.79c4.43-3.42 8.92-6.77 13.49-10 3.8-2.79 7.7-5.42 11.58-8.07l.81 5.68.84 5.67a72.93 72.93 0 002 8.35c.67 2.43 3 2.72 4.68 3.79l.52-.41c-.45-1.22-.89-2.45-1.35-3.67 2.62-.48 2.62-.48 1-6.36 1.34 2.53 2.74 5 4 7.6.71 1.44.08 2.24-1.07 2.23v3.65h-2.08c.31 9.89 6.19 16.76 13.39 22.36l1.13.85 1.39 1 1 .72 1.28.83c.7.47 1.41.94 2.13 1.39l1 .65.34.21c1.44.9 2.88 1.79 4.32 2.65l2.23 1.4.7.43c.61.36 1.21.73 1.81 1.1l2.5 1.56a7.34 7.34 0 012.11 1.71z" transform="translate(.02 9.92)"/><path class="cls-3" d="M39.35 163.23c-3.92 2.74-7.86 5.45-11.69 8.32-4.53 3.27-9 6.66-13.39 10.11A123 123 0 018 167.88v-.12a143.16 143.16 0 01-6.9-27.28c-.47-3.53-.8-7.12-1-10.74l.37-.31c1.89-1.64 3.84-3.17 5.82-4.67q6-4.47 12.25-8.51 3.72-2.41 7.51-4.75v1.5l-.9.74c-1.65 1.42-3.25 2.88-4.88 4.33s-3.08 3-4.63 4.58c1.57-1.51 3.1-3 4.69-4.52s3.26-2.86 4.92-4.27l.8-.64c0 1.75.09 3.5.19 5.26.07 1.18.16 2.37.28 3.56h-1.46c-5 0-8.89 2.89-10.73 8.14a11.07 11.07 0 00-.23 1.28c4.44-3 8-.26 11.17 1.67 1.09.66 2.18 1.35 3.25 2.05.32 1.39.67 2.78 1.05 4.15a79.57 79.57 0 008.12 19.39c.41.67.83 1.34 1.25 2 .16.77.29 1.63.41 2.51zM33.87 62.51c-1.41 4.68-2.63 9.42-3.73 14.2-.78 3.41-1.42 6.85-2 10.3s-1.05 6.93-1.4 10.41-.53 6.69-.63 10C23 109.58 20 111.79 17 114.07c-4 3-7.93 6.17-11.66 9.55-1.8 1.66-3.57 3.32-5.25 5.08-.09-1.56-.09-3.1-.09-4.63a122.57 122.57 0 017.57-42.6 143.83 143.83 0 0112.91-10.14c.74-.54 1.5-1 2.26-1.58L25 68.19c1.51-1 3.08-2 4.63-3L32 63.68zM48.16 26.42l-4 9.59c-.88 2-1.72 3.93-2.54 5.93q-1.11 2.72-2.15 5.46l-3.64 8.82a199.78 199.78 0 00-16.07 12.16l-.81.56c-1.34 1-2.66 2-3.92 3a28.24 28.24 0 00-3.54 3.46 27.59 27.59 0 013.6-3.4c1.06-.87 2.17-1.69 3.29-2.5a118.44 118.44 0 00-9.93 9.6q1-2.61 2.17-5.19c.67-1.49 1.36-3 2.09-4.43q2.22-4.5 4.79-8.76a122.67 122.67 0 019-13.07q2.73-3.46 5.71-6.71c3.21-3.27 6.45-6.52 9.83-9.6l.19-.16q2.91-2.44 5.93-4.76zM162.58 273.83a23.74 23.74 0 01-4.37.46 5.82 5.82 0 01-5.35-4.3c-3.11-8.7-8.13-16.39-13.22-24q5.58-.75 11-2c-2 .51-4.14 1-6.25 1.41.59.86 1.08 1.58 1.59 2.3 5.14 7.33 10.34 14.65 15.38 22 .77 1.13.84 2.73 1.22 4.13zM161.35 296.07a24.76 24.76 0 01-5.09.26c-3.8-.57-6.5-2.45-7.16-6.69a31.39 31.39 0 00-2-6.76c-4.61-11.33-9.33-22.61-14-33.92-.3-.74-.55-1.49-.79-2.26s-.41-1.31-.63-2l.75-.22 1.32 2.07c4.57 7.21 9.22 14.37 13.63 21.68 4.53 7.51 8.85 15.15 13.08 22.84.74 1.47.6 3.35.89 5zM135.61 272.61c-3.09.22-5-1.23-5.17-3.56q-.84-10.59-1.71-21.19v-1.19l.09.26c2.71 8.46 5.81 16.78 6.79 25.68zM188.1 156.38l.21 2.94a28.59 28.59 0 01-18.65-11.08c1 .61 2.06 1.22 3.08 1.84 4.8 2.92 9.8 5.38 15.36 6.3zM218.14 142.84c-.43 5-1.13 10-2 15a182.55 182.55 0 01-8.91 32.87q-6.69 2.41-13.31 5l-2.92 1.11.09-1.36c.23-2.81.31-5.63.44-8.45s.16-5.63.22-8.46c.07-4.22 0-8.42-.11-12.64a9.86 9.86 0 00.56-4 2.23 2.23 0 00-.77-1.82c-.06-1.21-.12-2.41-.2-3.61a5.27 5.27 0 001.79-.85 12.3 12.3 0 004.24-5.37q10.38-3.91 20.88-7.42zM164.19 209.54q12.21-5.23 24.64-9.91c-.16 4.17-.36 8.38-.61 12.55-.18 2.81-.32 5.61-.54 8.42s-.45 5.61-.66 8.41h.15a123.39 123.39 0 01-11.31 6.14l.3-.15q-6.16-12.66-11.97-25.46z" transform="translate(.02 9.92)"/><path class="cls-3" d="M175.8 235.2a122.71 122.71 0 01-25 8.73h-.13q-5.43 1.24-11 2c-.44-.67-.89-1.33-1.34-2-.85-1.28-2.4-2.11-3.66-3.09-3.92-3.09-7.86-6.15-11.76-9.25a3.38 3.38 0 01-1-1.34 3.1 3.1 0 01-.21-.58c0-.11 0-.22-.07-.32l.26.21.5.41c.45.38.91.73 1.4 1.07 4 2.6 8 5.23 12.15 7.72a10.78 10.78 0 003.22.74l.44-.76c-2.7-3-5.34-6-8.1-8.87-1-1.07-2.07-2.13-3.12-3.16l.1-.06c2.44-1.32 4.89-2.6 7.35-3.86l2.95-1.49 1.94-1q8.76-4.32 17.71-8.26 2.37-1 4.76-2.07l5.68 11.5c2.22 4.6 4.59 9.17 6.93 13.73z" transform="translate(.02 9.92)"/><path class="cls-3" d="M189.09 187c-.05 2.8 0 5.61-.14 8.41l-.06 2.28c-8.5 3.37-16.93 6.89-25.27 10.64l-1.11.5-4.68 2.14q-8.91 4.08-17.62 8.56l-2.41 1.24-2.88 1.52c-2.4 1.28-4.79 2.58-7.16 3.92-1.23-1.21-2.47-2.39-3.73-3.56a13.12 13.12 0 00-2.75-1.67c-6.34-3.53-12.72-7-19-10.64a13.11 13.11 0 01-4.07-4.34c3.86 2.37 7.67 4.81 11.59 7.07 3.77 2.17 7.45 4.46 12 5.13 5.4.8 8.23-.26 10.93-5.17 4.89 3.45 7.31 2.9 9.56-2 6.45.17 6.82 0 8-3.73a18.89 18.89 0 003.88-.61c2.82-1.13 3.08-2.18 1.76-5-.62-1.3-1.12-2.65-1.62-4a5 5 0 01-.16-1.28c1.35 1.66 2.56 3.25 3.88 4.73a3 3 0 004.21.52 4 4 0 00.31-.27c1.34-1.15 2.37-2.59.94-4.59-1.7-2.36-3.16-4.89-4.73-7.35l.49-.37c1.82 2 3.74 3.8 5.4 5.87 1 1.31 2 1.45 3.14.42a18 18 0 002.53-2.78c.94-1.32.78-2.5-.41-3.82a88.18 88.18 0 01-5.92-7.58 72.77 72.77 0 015.92 5.46c1.6 1.81 3.16 1.62 4.94.66 2-1.1 2.19-2.44.63-4.18-2.61-2.88-5.2-5.79-7.78-8.69a4.52 4.52 0 01-.28-1c2.91 2.24 5.47 4.21 8.05 6.16 2.33 1.77 3.64 1.66 5.67-.4.23-.24.44-.51.65-.77 2.75-3.58 2.67-4-1.2-6.07-5.52-3-7.53-4.64-9.86-7.87 3.93 2.2 8 4.4 12 6.78 1.74 1.05 3.09.75 4.62-.3a16.85 16.85 0 001.49-1.15c.1 2.88.17 5.78.2 8.68s.12 5.65.05 8.5zM229.55 185.57a123.46 123.46 0 01-42.2 43.35c.41-2.74.82-5.49 1.21-8.23s.69-5.59 1-8.39c.49-4.47.92-9 1.25-13.45l3.73-1.39q5.79-2.15 11.64-4.18c-2.14 5.47-4.53 10.85-7.2 16.09a133.76 133.76 0 01-9.2 15.73l.23.17c1-1.17 1.89-2.39 2.8-3.64s1.75-2.5 2.59-3.78q2.58-3.78 4.86-7.78c1.53-2.67 2.93-5.39 4.32-8.12q1-2.07 2-4.15c.66-1.39 1.27-2.79 1.86-4.21.18-.4.35-.81.52-1.21L213 191c5.5-1.93 11-3.74 16.55-5.43zM245.58 134.51A122.32 122.32 0 01231 183l-21 6.64c1.75-4.39 3.31-8.87 4.71-13.4a172.56 172.56 0 004.39-17.91 165.67 165.67 0 002.25-16.57q6.24-2 12.52-3.93c3.91-1.15 7.81-2.29 11.71-3.32zM246 124.07c0 2.61-.08 5.21-.24 7.78-4.23 1.16-8.41 2.42-12.58 3.72q-5.83 1.81-11.63 3.78l-2.23.76-1 .35Q208.06 144 198 147.85a3.55 3.55 0 00.09-.47 19.23 19.23 0 000-3.22c-7.58 1.48-14.6.76-21.25-2.65 3.25.51 6.48 1.2 9.75 1.47a46.41 46.41 0 008.82-.1c5.26-.62 9.63-6 9.53-11.7-10.75 1-21.38.46-31.73-3l4.24.64a69.17 69.17 0 0025.77-.75c5.19-1.12 9.16-8 7.5-13.38-10.29 4.3-20.75 4.26-31.24.57 2.25.2 4.51.46 6.78.59s4.73.16 7.1.12a45.83 45.83 0 0017.29-3.46c2.72-1.16 3.91-3.43 4.38-6.08.37-2.09-.79-2.89-2.79-2.17a30.28 30.28 0 01-20.59.17c4.56 0 9.16.4 13.66-.1a17 17 0 0012.62-8c.59-.91.59-2.21 1-4a36.47 36.47 0 01-17.26 3.82c3.68-1.3 7.71-2.47 11.53-4.13 5.73-2.5 9.33-7.19 11.61-12.85.54-1.34.08-3.08.08-5-13.09 4.61-25.57 8.8-39.15 6.28a5.56 5.56 0 011.21-.2 59 59 0 0027.51-6 47.2 47.2 0 0015.24-11.49c1.15 2 2.24 4.05 3.28 6.13A122.47 122.47 0 01246 124.07zM57.29 123.21v.16h.21a1.46 1.46 0 00-.21-.16zM29 120.65v.06zM187.18 229.07l.17-.11v.12z" transform="translate(.02 9.92)"/><path class="cls-3" d="M57.55 123.42h-.21v-.16a1.46 1.46 0 01.21.16zM29 120.74h-.05v-.06z" transform="translate(.02 9.92)"/></g></g></g></svg>
