<svg xmlns="http://www.w3.org/2000/svg" viewBox="0 0 246.04 306.38"><defs><style>.cls-1{fill:#002b78}</style></defs><g id="Layer_2" data-name="Layer 2"><g id="Layer_1-2" data-name="Layer 1"><path class="cls-1" d="M181.4 40.28c.3-.86.59-1.71.88-2.57s.59-1.72.87-2.58c.58-1.73 1.13-3.45 1.68-5.18.22-.67.4-1.34.58-2 2.14-8.45 1.12-17 0-25.56-.1-.74-.13-1.49-.19-2.23l.66-.14c1.3 5.37 2.83 10.7 3.83 16.13a114 114 0 011.37 13.33 4.33 4.33 0 00.82 2.57 2.5 2.5 0 00.22.24 4.35 4.35 0 00.45.39l.14.1a3.18 3.18 0 00.27.17c.79.47 1.54 1 2.28 1.55l.52.4c-4.78 1.73-9.6 3.54-14.38 5.38zM197.45 36.13l-.18.38c-.09.2-.19.39-.3.59-.2.39-.43.8-.67 1.21l-.38.62a4.94 4.94 0 01-.27.42c-.41.64-.85 1.29-1.34 1.95l-.49.66-.34.45c-.34.44-.7.9-1.08 1.36s-.81 1-1.23 1.46l-.42.49c-.42.47-.85 1-1.29 1.44l-.29.31c-.43.47-.87.93-1.33 1.4-.45.47-.91.93-1.37 1.39s-.84.83-1.26 1.23l-.64.61-.48.46-.51.47-1 .88c-1.76 1.58-3.56 3.1-5.35 4.51-.45.36-.9.7-1.35 1l-.62.47-.7.52-.66.47-1.31.92c-.44.29-.86.58-1.29.85l-.63.41-1.24.75-.61.36c-.2.11-.4.23-.6.33-.79.44-1.55.83-2.28 1.15l-.38.17-.4.17-.29.12c-.33.13-.66.25-1 .35l-.35.1-.44.13-.34.08h-.25l-.44.08 7.1-5.85c.48-.41 1-.82 1.42-1.24.65-.6 1.28-1.2 1.88-1.83.79-.83 1.55-1.71 2.25-2.61l.41-.56c.28-.38.54-.76.79-1.15l.31-.5a1.74 1.74 0 00.11-.18c.1-.15.19-.31.28-.47a1.62 1.62 0 00.1-.18c.21-.36.4-.73.58-1.1l.3-.63c.1-.21.19-.43.28-.65l.27-.66c.36-1 .73-1.93 1.08-2.9s.71-1.94 1.06-2.91q8.24-3.9 16.47-7.82zM234.6 32.72c-.86 10.86-6.14 18.9-15.85 23.59l-.24.12a67.87 67.87 0 01-22.45 6.79 3.91 3.91 0 01-2.27-.25c1.4-.49 2.81-1 4.21-1.46 5.81-2 11.77-3.69 16.87-7.39a10.85 10.85 0 011.11-.7c1.56-.87 3.29-1.49 4.76-2.48A30.55 30.55 0 00232.49 37c.59-1.47 1.4-2.86 2.11-4.28zM207 44.13c.52.62 1 1.17 1.51 1.8-5.33 4.27-10.53 8.53-17.1 10.91a63.19 63.19 0 0013.62-14.51 38.94 38.94 0 006.06-26.74c4.57 5 2.6 18.3-4.13 28.49zM237.78 62.92a55.23 55.23 0 01-3.95 10.88 6.79 6.79 0 00-.83 5c-1-2.07-2.13-4.11-3.29-6.12a33.45 33.45 0 006.42-11.76 18.39 18.39 0 011.74-4c0 2.02.42 4.14-.09 6zM145.68 194.92c2.68.91 4.37 2.21 3.93 5s-2.19 4.46-4.84 5.62c-4.86 2.11-9.06.79-13.46-1.52a12.86 12.86 0 001.09 1.33c2 1.85 2.46 4 1.19 6.39s-3 4.23-5.87 4.09c-3.24-.15-6.47-.49-9.58-.75.29 2.89-1.23 4.52-4.8 3.69-8-1.87-14-6.83-18.55-13.55a7.24 7.24 0 01-.43-1c2.65 2.15 5.09 4.25 7.67 6.16a15.85 15.85 0 004 2.05c5.24 1.89 7.47.16 6.61-5.09 2.39 1 4.71 2.09 7.15 2.85a14 14 0 004.74.5c2.92-.14 4-2 3-4.68-1.24-3.2-2.55-6.37-3.88-9.68 1.78 1 3.53 2 5.22 3 3.2 2 6.74 2.18 10.29 1.84 1-.1 2.57-.91 2.75-1.66a4.26 4.26 0 00-1.11-3.32 40.67 40.67 0 00-4.74-3.82c4.06 0 8.21.26 12.31-.07 4.52-.35 7.61-2.88 8.69-7.56.43 6.55-3.73 9.26-11.38 10.18zM177.55 96.37a21.87 21.87 0 01-2 1.69c.34.37.49.67.66.69 3.84.4 5 1.45 4.34 5.24a19.75 19.75 0 01-1.32 4.28c-.51 1.25-1.11 2.47-1.72 3.66a29.19 29.19 0 01-7.66 9.84l-.52-.38c.43-.61.91-1.2 1.28-1.84 2-3.33 4.29-6.51 5.74-10.06 2.22-5.47-.33-8.48-6.24-7.95-.5 0-1 .1-2.22.23 1.57-1.93 2.8-3.29 3.85-4.78.49-.69 1-1.38 1.48-2.08 1.1-1.53 2.18-3 3.26-4.59 1.72-2.46 3.42-4.94 5-7.47.7-1.11.86-3.41.17-4.34s-2.77-1.05-4.22-1-3.06.76-4.67 1c3.44-1.68 6.74-3.85 10.79-3.69 2.8.1 4.17 2.29 3.33 5.28a39.5 39.5 0 01-8.13 14.84c-.34.46-.75.95-1.2 1.43zM46.92 135.06a14.57 14.57 0 00-3.33-.87c-.78 0-1.54.71-2.36.91a8.54 8.54 0 01-3.54.53c-1.13-.24-2.09-1.21-3.74-2.26 4.67.33 9.16-3.44 12.97 1.69z"/><path class="cls-1" d="M46.92 135.06a14.57 14.57 0 00-3.33-.87c-.78 0-1.54.71-2.36.91a8.54 8.54 0 01-3.54.53c-1.13-.24-2.09-1.21-3.74-2.26 4.67.33 9.16-3.44 12.97 1.69zM133.74 256.55l-1.44.11c-.21-.65-.41-1.31-.63-2l.75-.22zM145.68 194.92c2.68.91 4.37 2.21 3.93 5s-2.19 4.46-4.84 5.62c-4.86 2.11-9.06.79-13.46-1.52a12.86 12.86 0 001.09 1.33c2 1.85 2.46 4 1.19 6.39s-3 4.23-5.87 4.09c-3.24-.15-6.47-.49-9.58-.75.29 2.89-1.23 4.52-4.8 3.69-8-1.87-14-6.83-18.55-13.55a7.24 7.24 0 01-.43-1c2.65 2.15 5.09 4.25 7.67 6.16a15.85 15.85 0 004 2.05c5.24 1.89 7.47.16 6.61-5.09 2.39 1 4.71 2.09 7.15 2.85a14 14 0 004.74.5c2.92-.14 4-2 3-4.68-1.24-3.2-2.55-6.37-3.88-9.68 1.78 1 3.53 2 5.22 3 3.2 2 6.74 2.18 10.29 1.84 1-.1 2.57-.91 2.75-1.66a4.26 4.26 0 00-1.11-3.32 40.67 40.67 0 00-4.74-3.82c4.06 0 8.21.26 12.31-.07 4.52-.35 7.61-2.88 8.69-7.56.43 6.55-3.73 9.26-11.38 10.18zM177.55 96.37a21.87 21.87 0 01-2 1.69c.34.37.49.67.66.69 3.84.4 5 1.45 4.34 5.24a19.75 19.75 0 01-1.32 4.28c-.51 1.25-1.11 2.47-1.72 3.66a29.19 29.19 0 01-7.66 9.84l-.52-.38c.43-.61.91-1.2 1.28-1.84 2-3.33 4.29-6.51 5.74-10.06 2.22-5.47-.33-8.48-6.24-7.95-.5 0-1 .1-2.22.23 1.57-1.93 2.8-3.29 3.85-4.78.49-.69 1-1.38 1.48-2.08 1.1-1.53 2.18-3 3.26-4.59 1.72-2.46 3.42-4.94 5-7.47.7-1.11.86-3.41.17-4.34s-2.77-1.05-4.22-1-3.06.76-4.67 1c3.44-1.68 6.74-3.85 10.79-3.69 2.8.1 4.17 2.29 3.33 5.28a39.5 39.5 0 01-8.13 14.84c-.34.46-.75.95-1.2 1.43zM195.81 34.91c-4.82 1.74-9.6 3.55-14.38 5.39.3-.86.59-1.71.87-2.57s.59-1.72.87-2.58q.87-2.58 1.69-5.18c.21-.67.4-1.34.57-2 2.21 1.31 4.38 2.67 6.49 4.1l.22.24a4.35 4.35 0 00.45.39l.14.1a3.18 3.18 0 00.27.17c.79.47 1.54 1 2.28 1.55l.52.4zM197.45 36.13c0 .13-.12.26-.18.38s-.19.39-.3.59c-.2.39-.43.8-.67 1.21l-.38.62a4.94 4.94 0 01-.27.42c-.41.64-.85 1.29-1.34 1.95l-.49.66-.34.45c-.34.44-.7.9-1.08 1.36s-.81 1-1.23 1.46l-.42.49c-.42.47-.85 1-1.29 1.44l-.29.31c-.43.47-.87.93-1.33 1.4-.45.47-.91.93-1.37 1.39s-.84.83-1.26 1.23l-.64.61-.48.46-.51.47-1 .88c-1.76 1.58-3.56 3.1-5.35 4.51-.45.36-.9.7-1.35 1l-.62.47-.7.52-.66.47-1.31.92c-.44.29-.86.58-1.29.85l-.63.41-1.24.75-.61.36c-.2.11-.4.23-.6.33-.79.44-1.55.83-2.28 1.15l-.38.17-.4.17-.29.12c-.33.13-.66.25-1 .35l-.35.1-.44.13-.34.08h-.25l-.44.08 7.1-5.85c.48-.41 1-.82 1.42-1.24.65-.6 1.28-1.2 1.88-1.83.79-.83 1.55-1.71 2.25-2.61l.41-.56c.28-.38.54-.76.79-1.15.11-.17.22-.34.31-.5a1.74 1.74 0 00.11-.18c.1-.15.19-.31.28-.47a1.62 1.62 0 00.1-.18c.21-.36.4-.73.58-1.1.11-.2.21-.42.3-.63a5.3 5.3 0 00.28-.65q.15-.33.27-.66c.37-1 .73-1.93 1.08-2.9s.72-1.94 1.06-2.91q8.24-3.9 16.47-7.82l.69.51zM208.55 45.93c-5.32 4.27-10.53 8.53-17.1 10.91a62.75 62.75 0 0013.62-14.51c.67.59 1.32 1.19 2 1.8s.93 1.17 1.48 1.8zM174.12 22.12l-1.76-.79-1.25-.53-.82-.34c-.48-.21-.95-.4-1.44-.59l-1.33-.53c-1.69-.66-3.4-1.28-5.11-1.86-.56-.2-1.1-.38-1.66-.56l-1.93-.61c-.64-.2-1.29-.39-1.94-.57s-1.24-.36-1.86-.53h-.16l-1.55-.41-.5-.13.32.76-3.19 1.31.19.16a1.34 1.34 0 01.21.2l.2.19.17.19a5.72 5.72 0 01.56.7l.15.22a10.16 10.16 0 011.18 2.56l.43 1.36c.29.95.58 1.9.85 2.86l.36 1.26c.2.78.41 1.55.59 2.32 0 .25.12.49.17.74.12.5.22 1 .33 1.5l.12.62 5.44 3.25q4.29 2.35 8.45 5l.74.48c.2-.41.4-.81.59-1.22l.36-.79c.63-1.35 1.21-2.69 1.74-4 .14-.36.29-.72.42-1.07q.69-1.77 1.23-3.42l.18-.57c.34-1.07.62-2.1.85-3.07.05-.23.09-.45.14-.66l.09-.43.06-.33c0-.16.05-.31.07-.46l.06-.38c.05-.31.09-.62.11-.91-.6-.35-1.23-.63-1.86-.92zm-25.35-8.43c-.45-.11-.91-.2-1.37-.29l-.76-.16-.76-.15-.76-.14c-1.61-.3-3.25-.56-4.89-.79A123.72 123.72 0 00124.61 11h-5.68a131.85 131.85 0 00-14.68 1.38l-1.45.22-.29.06 1.35.26c3.9.83 7.78 1.75 11.64 2.8s7.67 2.22 11.47 3.46l3 1q9.59-3.47 19.31-6.47zM114.71 18q-7.54-2.49-15.19-4.81a119.76 119.76 0 00-14 3.58c3.32.71 6.6 1.64 9.85 2.63a127.24 127.24 0 0116.87 6.68l1 .49 3.38-1.34q4.53-1.74 9.07-3.43c-3.69-1.31-7.32-2.53-10.98-3.8zM91.77 63.71C89.84 59 87.87 54.23 86 49.46l-1.68-4.2-1.21.58-5 2.47Q69.5 52.6 61 57.08l-.09.51c-.21 1.27-.46 2.55-.66 3.83l-.54 3.85c-.19 1.29-.38 2.57-.51 3.86L58.75 73c-.07.64-.16 1.29-.21 1.93l-.15 1.94-.3 3.88q-.56 8.55-.41 17.1 5.15-2.93 10.32-5.76c4.4-2.4 8.84-4.72 13.28-7s8.92-4.54 13.4-6.78L97.32 77zm-22.14 90.83v4.14c.06.14.13.27.19.4l1 2q.1-.59.18-1.17c.11-.84.22-1.67.34-2.51 0-.3.09-.59.13-.88.08-.57.17-1.13.26-1.69s.18-1.12.28-1.68zm29.88-72.41l-2.34 1.15C84 89.83 70.83 96.49 57.84 103.44a227.56 227.56 0 003.93 33.33 39.8 39.8 0 016.62 4.93 4.5 4.5 0 011.17 2.94q.07 4.49.07 9L72.2 152c.12-.7.27-1.4.42-2.09 0-.21.09-.42.14-.63s.11-.48.17-.73.15-.63.23-1 .16-.62.25-.93l.18-.65c.26-.92.55-1.84.87-2.74.06-.19.13-.38.2-.57.24-.66.5-1.32.78-2 .07-.18.15-.36.23-.54l.24-.54c.08-.18.16-.36.25-.54l.26-.53.27-.53c.18-.35.36-.7.56-1l.3-.53c.26-.45.53-.9.81-1.34l.48-.72c2-2.93 3.77-6 5.61-9 .32-.53.64-1 1-1.57L86 123c.23-.36.45-.72.69-1.08l.31-.48c.37-.56.74-1.12 1.12-1.68l1.26-1.85c.37-.55.75-1.09 1.13-1.63.57-.8 1.14-1.59 1.72-2.38.79-1.1 1.6-2.18 2.41-3.25 3.61-4.77 7.4-9.4 11.24-14q-3.24-7.22-6.37-14.52zm-62.85 71.63L46 165.43a35.07 35.07 0 00-3-6.78c-.14-.21-.27-.43-.42-.64s-.22-.34-.34-.51c-.47-.68-1-1.34-1.48-2-.1-.13-.2-.26-.31-.38s-.3-.38-.46-.55-.41-.49-.63-.72a43.78 43.78 0 00-3.71-3.63l-.63-.53c-.29-.25-.59-.49-.89-.73l-.66-.52c-.26-.2-.52-.41-.79-.6s-.53-.4-.8-.6a121.52 121.52 0 003.92 12.56c.85 1.95 1.63 3.93 2.52 5.87-.41-2.94-.82-5.9-1.24-8.9-.08-1-.28-2-.42-3.01zM56.12 128a147.94 147.94 0 01-2.71-18.86q-.12-1.55-.21-3.09-4.53 2.44-9 4.95-3.86 2.15-7.67 4.39l-.88.61-5.24 3.85-1.41.94q0 3.72.12 7.44c0 .66.06 1.32.1 2l.12-.14a1.62 1.62 0 01.19-.18l.15-.14a3.68 3.68 0 01.39-.3l.22-.15.23-.13.23-.13a3.82 3.82 0 01.46-.21h.06l.56-.22.29-.09.64-.19.3-.08.72-.15h.29c.24 0 .48-.09.73-.12l.65-.08h1.16c1-.06 2.07-.06 3.17 0h.5l1.32.09 1.24.13 1.31.18.66.11c.22 0 .44.07.65.12l.45.08.37.08.66.14c.6.13 1.18.28 1.76.44l.49.14.76.23.54.17.68.24.59.22.58.23 1.12.49.54.26.52.27c.34.18.67.37 1 .56l.23.15c.24.15.47.3.69.46l.42.31a4.12 4.12 0 01.4.33c-.38-1.93-.77-3.66-1.14-5.35zm-26.82 2.81l-.28-.14c.05.6.12 1.2.19 1.79l.21.06 1.54.37 1.76.38c.06-.23.12-.46.19-.69zm9.79-61.52c-.67.39-1.33.79-2 1.2C35.53 76 34.13 81.62 33 87.25a185.53 185.53 0 00-3.17 20.4c-.25 2.55-.46 5.1-.59 7.66l.09-.06c4.16-2.82 8.41-5.48 12.67-8.13q5.46-3.37 11-6.59-.08-3.32 0-6.62a167.26 167.26 0 011.24-17q1.08-8.48 3-16.81l.27-1.12c-6.24 3.29-12.37 6.72-18.42 10.31zm22.73-42a124.3 124.3 0 00-12.14 8l.13.08c-.64 1.18-1.25 2.37-1.84 3.57-1.16 2.85-2.27 5.73-3.34 8.62Q41.56 55.72 39 64.1c6.62-4.35 13.41-8.4 20.32-12.23.09-.33.19-.66.28-1v-.09l.4-1.44c1.47-5.05 3.07-10.07 5-15a122.63 122.63 0 015.19-11.51q-4.28 2.06-8.37 4.42zm13.08-6.55q-2.16.92-4.28 1.92A167.68 167.68 0 0062.4 50a2 2 0 010 .24c4.39-2.38 8.82-4.66 13.28-6.88 2.2-1.09 4.41-2.17 6.63-3.22-2.58-6.47-5.05-12.92-7.41-19.4zM57.36 133.3L56 133l-.3-.07-3.14-.66c.94.38 1.87.77 2.78 1.17l.8.36.31.14 1.27.6c-.16-.4-.26-.82-.36-1.24zm91.1-106.08v-.8-.63-1.5c0-.37 0-.75-.08-1.12v-.07c0-.46-.07-.91-.11-1.37l-.27-1.19v-.23c-.05-.44-.1-.88-.16-1.33l-.18-1.37c-3.92 1.61-7.83 3.25-11.74 4.89l2.19.85c1.86.75 3.69 1.55 5.53 2.34 1.61.75 3.23 1.47 4.81 2.26.02-.25.02-.48.01-.73zm-.6 3.64c-3.58-1.66-7.21-3.21-10.87-4.68-1.66-.7-3.34-1.34-5-2q-6.47 2.73-12.91 5.51 4.57 2.53 8.93 5.44c.64.41 1.27.84 1.89 1.27s1.26.86 1.88 1.31c1.21.9 2.46 1.79 3.65 2.73 2.42 1.84 4.75 3.8 7.05 5.8q1.92 1.68 3.78 3.44c.16-.76.32-1.53.47-2.31.09-.43.17-.87.25-1.3s.15-.87.23-1.31.14-.88.2-1.32.11-.67.15-1c.1-.67.18-1.33.26-2 0-.33.09-.67.12-1s.08-.65.1-1 .06-.59.09-.88.06-.62.08-.93c.07-.88.13-1.75.18-2.63 0-.92.08-1.83.09-2.75v-.09zm4.59 31.73c0 .14-.11.27-.17.4-.29.67-.61 1.34-.94 2-.15.32-.32.64-.48 1l.41-.16.33-.16.4-.21c.26-.16.54-.33.81-.53l.28-.2.32-.25.34-.28c-.43-.56-.86-1.09-1.3-1.61zM94.86 20.76c-1.68-.66-3.39-1.28-5.1-1.87a61.64 61.64 0 00-6.11-1.33v-.15c-2.84 1-5.64 2-8.38 3.17q4.61 9.24 9 18.56 5.77-2.72 11.63-5.29 7.08-3.12 14.24-6a131.43 131.43 0 00-15.28-7.09zm53.6 6.46v-.8-.63-1.5c0-.37 0-.75-.08-1.12v-.07c0-.46-.07-.91-.11-1.37l-.27-1.19v-.23c-.05-.44-.1-.88-.16-1.33l-.18-1.37c-3.92 1.61-7.83 3.25-11.74 4.89l2.19.85c1.86.75 3.69 1.55 5.53 2.34 1.61.75 3.23 1.47 4.81 2.26.02-.25.02-.48.01-.73zm-.6 3.64c-3.58-1.66-7.21-3.21-10.87-4.68-1.66-.7-3.34-1.34-5-2q-6.47 2.73-12.91 5.51 4.57 2.53 8.93 5.44c.64.41 1.27.84 1.89 1.27s1.26.86 1.88 1.31c1.21.9 2.46 1.79 3.65 2.73 2.42 1.84 4.75 3.8 7.05 5.8q1.92 1.68 3.78 3.44c.16-.76.32-1.53.47-2.31.09-.43.17-.87.25-1.3s.15-.87.23-1.31.14-.88.2-1.32.11-.67.15-1c.1-.67.18-1.33.26-2 0-.33.09-.67.12-1s.08-.65.1-1 .06-.59.09-.88.06-.62.08-.93c.07-.88.13-1.75.18-2.63 0-.92.08-1.83.09-2.75v-.09zm-8.05 18.3a144 144 0 00-13.7-11.31q-5-3.63-10.24-6.78Q103 36.65 90.2 42.41l-2.08 1-1.45.7c.66 1.4 1.32 2.79 2 4.19 2.19 4.64 4.31 9.31 6.46 14L101 75.22q21.72-10.56 43.93-20.06l.21-.77c-1.76-1.78-3.53-3.53-5.33-5.23zm-36.58 31.13q2.85 6.38 5.64 12.79c3.23-3.81 6.46-7.61 9.64-11.45a16.26 16.26 0 015.71-4.06c2.55-1.17 4.34.22 4.27 3a47.45 47.45 0 01-.6 5l.55-.41c.17-.14.34-.27.51-.42s.33-.28.5-.44c.55-.49 1.11-1 1.67-1.63.16-.18.33-.36.49-.55s.29-.32.42-.48l.41-.49c.28-.33.56-.68.83-1 .16-.2.31-.4.46-.61l.53-.72c.47-.67.94-1.37 1.41-2.11.12-.18.23-.36.34-.54s.21-.34.31-.51l.51-.85c.33-.56.66-1.15 1-1.74a.59.59 0 010-.08c.29-.53.56-1.06.84-1.61.08-.15.15-.29.22-.44l.36-.72c.15-.33.31-.65.47-1s.31-.66.46-1 .31-.68.45-1c.28-.64.56-1.3.83-2l.06-.15c.29-.71.56-1.43.84-2.16.22-.58.43-1.18.64-1.78-13.28 6.29-26.56 12.66-39.77 19.16zm-72 38.05l-2.19 1.3v.87l1.2-1 3.66-2.76zM164.24 50.89a1.74 1.74 0 00-.11.18c-.57.91-1.14 1.8-1.72 2.66q-.25.39-.51.75a70.58 70.58 0 01-4.3 5.73c-.22.27-.44.52-.66.77-.52-.61-1-1.22-1.57-1.82-.39-.45-.78-.89-1.18-1.33.05-.13.09-.27.13-.41s.07-.25.11-.38c.1-.34.2-.69.28-1a.57.57 0 000-.14c0-.14.07-.28.1-.42s.14-.53.2-.79q4.63-1.94 9.23-3.8zM169 42.43l-.33.65-.09.16-.82 1.55-.6 1.09-.26.46c-.28.52-.58 1-.87 1.54q-5.28 2.18-10.52 4.43c.11-.6.21-1.19.29-1.79 0-.21.07-.44.1-.66l.15-1.23.09-.92c0-.17 0-.34.05-.51s0-.51 0-.77v-.54-2.2-1.25c0-2-.1-4-.29-6.07 0-.35-.07-.71-.11-1.06l-.06-.52c.83.43 1.67.87 2.5 1.32 3.83 1.95 7.38 4.04 10.77 6.32zM84.14 237.05c-.49-.14-1-.27-1.46-.42l-1.26-.38-.17-.06-1.25-.41h-.07l-1.34-.47-1.25-.46-.17-.06-1.31-.51-1.35-.56-1.34-.58-.94-.43-1.49-.7-.68-.34-1-.49-1.06-.6-.28-.15-.32-.18-1.2-.67c-.4-.22-.8-.46-1.19-.69-.8-.48-1.59-1-2.38-1.47.7 1.36 1.12 3 2.15 4.05l.52.52.23.22c2 2 4.24 3.81 6.44 5.63s4.49 3.31 6.57 5.16a6.86 6.86 0 012.5 6.57l-1.12-.33c-.86-.32-1.73-.66-2.58-1a153.11 153.11 0 01-19.16-9.85 2 2 0 01-.19-.12q-4.44-2.72-8.55-5.7h-.07a123.55 123.55 0 01-35-40.79c4.43-3.42 8.92-6.77 13.49-10 3.8-2.79 7.7-5.42 11.58-8.07l.81 5.68.84 5.67a71.42 71.42 0 002 8.35c.67 2.43 3 2.72 4.68 3.79l.52-.41c-.45-1.22-.89-2.45-1.35-3.67 2.62-.48 2.62-.48 1-6.36 1.34 2.53 2.74 5 4 7.6.71 1.44.08 2.24-1.07 2.23v3.65h-2.06C49.12 210.13 55 217 62.2 222.6l1.13.85 1.39 1 1 .72L67 226c.7.47 1.41.94 2.13 1.4l1 .65.34.21q2.16 1.35 4.32 2.65l2.21 1.35.7.43c.61.36 1.21.73 1.81 1.1l2.5 1.56a7.25 7.25 0 012.13 1.7z"/><path class="cls-1" d="M39.37 173.16c-3.92 2.74-7.86 5.45-11.69 8.32-4.53 3.27-9 6.66-13.39 10.11A122.32 122.32 0 018 177.81v-.11a142.84 142.84 0 01-6.9-27.29c-.47-3.53-.8-7.12-1-10.74l.37-.31c1.89-1.63 3.84-3.16 5.82-4.66q6-4.48 12.25-8.51 3.72-2.43 7.51-4.75v1.47l-.9.74c-1.65 1.42-3.25 2.88-4.88 4.33s-3.08 3-4.63 4.57c1.57-1.51 3.1-3 4.69-4.52s3.26-2.86 4.92-4.26l.8-.64c0 1.75.09 3.5.19 5.25.07 1.18.16 2.37.28 3.56h-1.44c-5 0-8.89 2.89-10.73 8.15a11.47 11.47 0 00-.23 1.27c4.44-3 8-.26 11.17 1.67 1.09.67 2.18 1.35 3.25 2.06.32 1.39.67 2.78 1.05 4.15a79.41 79.41 0 008.12 19.39c.41.67.83 1.34 1.25 2 .16.8.29 1.66.41 2.53zM33.89 72.45c-1.41 4.68-2.63 9.42-3.73 14.19-.78 3.41-1.42 6.85-2 10.3s-1.05 6.93-1.4 10.41-.53 6.69-.63 10.05q-4.62 3.18-9.13 6.6c-4 3-7.93 6.18-11.66 9.55-1.8 1.66-3.57 3.32-5.25 5.08Q0 136.3 0 134a122.72 122.72 0 017.57-42.6A144.76 144.76 0 0120.5 81.27c.74-.54 1.5-1.06 2.26-1.58l2.29-1.56c1.51-1.06 3.08-2 4.63-3L32 73.61zM48.18 36.35l-4 9.59c-.88 2-1.72 3.94-2.54 5.93q-1.11 2.72-2.15 5.46l-3.64 8.83a199.72 199.72 0 00-16.07 12.15l-.81.57c-1.34 1-2.66 2-3.92 3a27.54 27.54 0 00-3.54 3.46 26.93 26.93 0 013.6-3.4c1.06-.88 2.17-1.7 3.29-2.5a116.88 116.88 0 00-9.93 9.6q1-2.62 2.17-5.19 1-2.24 2.09-4.43c1.48-3 3.08-5.92 4.79-8.76a120.56 120.56 0 019-13.07q2.73-3.47 5.71-6.71c3.21-3.27 6.45-6.52 9.83-9.6l.19-.16q2.91-2.45 5.93-4.77zM49.39 35.43zM162.6 283.76a22.53 22.53 0 01-4.37.46 5.81 5.81 0 01-5.35-4.29c-3.11-8.71-8.13-16.4-13.22-24q5.58-.75 11-2c-2 .51-4.14 1-6.25 1.41.59.86 1.08 1.58 1.59 2.3 5.14 7.33 10.34 14.64 15.38 22 .77 1.13.84 2.73 1.22 4.12zM161.37 306a24.37 24.37 0 01-5.09.27c-3.8-.58-6.5-2.46-7.16-6.69a31.42 31.42 0 00-2.05-6.77c-4.61-11.33-9.33-22.61-14-33.92-.3-.74-.55-1.49-.79-2.26s-.41-1.31-.63-2l.75-.22 1.32 2.08c4.57 7.2 9.22 14.37 13.63 21.68 4.53 7.51 8.85 15.15 13.08 22.84.79 1.46.65 3.35.94 4.99zM135.63 282.55c-3.09.22-5-1.24-5.17-3.56q-.84-10.59-1.71-21.19v-.93a2.26 2.26 0 000-.26l.09.26c2.71 8.46 5.81 16.78 6.79 25.68zM188.12 166.31l.21 2.94a28.59 28.59 0 01-18.65-11.07c1 .61 2.06 1.22 3.08 1.84 4.8 2.91 9.8 5.37 15.36 6.29zM218.16 152.77c-.43 5-1.13 10-2 15a182.39 182.39 0 01-8.91 32.87q-6.69 2.43-13.31 5l-2.94 1.11.09-1.35c.23-2.81.31-5.63.44-8.45s.16-5.64.22-8.46c.07-4.22 0-8.42-.11-12.64a9.79 9.79 0 00.56-4 2.23 2.23 0 00-.77-1.82c-.06-1.21-.12-2.41-.2-3.61a5.39 5.39 0 001.79-.85 12.37 12.37 0 004.24-5.37q10.39-3.92 20.9-7.43zM164.21 219.47q12.21-5.22 24.64-9.91c-.16 4.18-.36 8.38-.61 12.56-.18 2.81-.32 5.61-.54 8.41s-.45 5.61-.66 8.41h.15a120.82 120.82 0 01-11.31 6.14l.3-.15q-6.12-12.65-11.97-25.46z"/><path class="cls-1" d="M175.82 245.13a122.11 122.11 0 01-25 8.73h-.13q-5.43 1.25-11 2c-.44-.67-.89-1.33-1.34-2-.85-1.28-2.4-2.1-3.66-3.09-3.92-3.09-7.86-6.15-11.76-9.25a3.33 3.33 0 01-1-1.34 2.48 2.48 0 01-.21-.58 3 3 0 01-.07-.32l.26.21.5.41a15.72 15.72 0 001.4 1.07c4 2.6 8 5.23 12.15 7.72a10.61 10.61 0 003.22.74l.44-.76c-2.7-3-5.34-6-8.1-8.87-1-1.07-2.07-2.13-3.12-3.16l.1-.06c2.44-1.32 4.89-2.6 7.35-3.86l2.95-1.49 1.94-.95q8.76-4.31 17.71-8.26 2.37-1 4.76-2.07l5.68 11.5c2.22 4.55 4.59 9.12 6.93 13.68z"/><path class="cls-1" d="M189.11 196.89c-.05 2.8 0 5.61-.14 8.41l-.06 2.29c-8.5 3.37-16.93 6.89-25.27 10.64l-1.11.49-4.68 2.14q-8.91 4.08-17.62 8.56l-2.41 1.24-2.88 1.52c-2.4 1.28-4.79 2.58-7.16 3.92-1.23-1.21-2.47-2.39-3.73-3.56a13.81 13.81 0 00-2.75-1.67c-6.34-3.53-12.72-7-19-10.64a13 13 0 01-4.07-4.31c3.86 2.37 7.67 4.81 11.59 7.07 3.77 2.17 7.45 4.46 12 5.13 5.4.8 8.23-.26 10.93-5.17 4.89 3.45 7.31 2.9 9.56-2 6.45.17 6.82 0 8-3.73a17.9 17.9 0 003.88-.61c2.82-1.13 3.08-2.18 1.76-5-.62-1.3-1.12-2.65-1.62-4a5.32 5.32 0 01-.16-1.28c1.35 1.66 2.56 3.25 3.88 4.73a3 3 0 004.52.25c1.34-1.15 2.37-2.59.94-4.59-1.7-2.36-3.16-4.89-4.73-7.35l.49-.37c1.82 1.95 3.74 3.8 5.4 5.87 1.05 1.31 2 1.45 3.14.42a17.13 17.13 0 002.53-2.78c.94-1.32.78-2.5-.41-3.82a85.6 85.6 0 01-5.92-7.58 74.76 74.76 0 015.92 5.46c1.6 1.81 3.16 1.62 4.94.66 2-1.1 2.19-2.44.63-4.18-2.61-2.88-5.2-5.79-7.78-8.69a4.28 4.28 0 01-.28-1c2.91 2.24 5.47 4.21 8.05 6.16 2.33 1.77 3.64 1.66 5.67-.4.23-.24.44-.51.65-.77 2.75-3.58 2.67-4-1.2-6.07-5.52-3-7.53-4.64-9.86-7.87 3.93 2.2 8 4.4 12 6.78 1.74 1.05 3.09.75 4.62-.3a15.88 15.88 0 001.49-1.15q.15 4.33.2 8.68c.04 2.87.12 5.67.05 8.47zM229.57 195.51a123.55 123.55 0 01-42.2 43.35c.41-2.74.82-5.49 1.21-8.23s.69-5.59 1-8.39c.49-4.47.92-9 1.25-13.45l3.73-1.4q5.79-2.14 11.64-4.18c-2.14 5.47-4.53 10.85-7.2 16.09a132.38 132.38 0 01-9.2 15.73l.23.18c1-1.18 1.89-2.4 2.8-3.64s1.75-2.51 2.59-3.79Q198 224 200.28 220c1.53-2.66 2.93-5.38 4.32-8.12.67-1.38 1.34-2.76 2-4.15s1.27-2.79 1.86-4.21c.18-.4.35-.81.52-1.21l4.07-1.4a419.27 419.27 0 0116.52-5.4zM245.6 144.44a122.22 122.22 0 01-14.6 48.5l-21 6.64c1.75-4.39 3.31-8.87 4.71-13.4a171.32 171.32 0 004.39-17.91 164.88 164.88 0 002.25-16.57q6.24-2 12.52-3.93c3.93-1.16 7.83-2.29 11.73-3.33zM246 134c0 2.62-.08 5.21-.24 7.79-4.23 1.16-8.41 2.42-12.58 3.72q-5.83 1.81-11.63 3.78l-2.23.76-1 .35q-10.24 3.51-20.34 7.39a3.55 3.55 0 00.09-.47 19.82 19.82 0 000-3.22c-7.58 1.48-14.6.76-21.25-2.65 3.25.51 6.48 1.2 9.75 1.46a45.6 45.6 0 008.82-.1c5.26-.62 9.63-6 9.53-11.7-10.75 1.05-21.38.46-31.73-3l4.24.65a69.28 69.28 0 0025.77-.76c5.19-1.12 9.16-8 7.5-13.37-10.29 4.3-20.75 4.25-31.24.57 2.25.2 4.51.46 6.78.58s4.73.17 7.1.13a46.06 46.06 0 0017.29-3.46c2.72-1.16 3.91-3.43 4.38-6.09.37-2.09-.79-2.89-2.79-2.17a30.28 30.28 0 01-20.59.17c4.56 0 9.16.4 13.66-.1a17 17 0 0012.62-8c.59-.91.59-2.21 1-4a36.32 36.32 0 01-17.26 3.82c3.68-1.3 7.71-2.47 11.53-4.13 5.73-2.5 9.33-7.19 11.61-12.85.54-1.34.08-3.08.08-5-13.09 4.61-25.57 8.8-39.15 6.28a6.5 6.5 0 011.21-.2 58.81 58.81 0 0027.51-6 47.09 47.09 0 0015.28-11.48q1.72 3 3.28 6.12A122.49 122.49 0 01246 134zM57.31 133.14v.16h.21a1.71 1.71 0 00-.21-.16zM29 130.58a.21.21 0 000 .06h.05a.28.28 0 01-.05-.06zM187.2 239a1 1 0 01.17-.1.5.5 0 000 .12z"/><path class="cls-1" d="M57.57 133.35h-.21v-.16a1.71 1.71 0 01.21.16zM29 130.67h-.05a.21.21 0 010-.06.28.28 0 00.05.06z"/></g></g></svg>
