<svg version="1.1" id="Layer_1" xmlns="http://www.w3.org/2000/svg" x="0" y="0" viewBox="0 0 421.3 411.6" xml:space="preserve"><style>.st0{fill:#002b78}</style><g id="Layer_1-2"><text transform="translate(0 371.68)" class="st0" font-size="24.71" font-family="AUTHEIN">ARISE, SHINE</text><text transform="translate(22.93 405.45)" class="st0" letter-spacing="8" font-size="21.85" font-family="Metropolis-Medium">CHRISTIAN NETWORK</text><g><path class="st0" d="M269 40.3c.3-.9.6-1.7.9-2.6s.6-1.7.9-2.6c.6-1.7 1.1-3.5 1.7-5.2.2-.7.4-1.3.6-2 2.1-8.5 1.1-17 0-25.6-.1-.7-.1-1.5-.2-2.2l.7-.2c1.3 5.4 2.8 10.7 3.8 16.1.7 4.4 1.2 8.9 1.4 13.3 0 .9.3 1.8.8 2.6.1.1.1.2.2.2.1.1.3.3.5.4l.1.1c.1 0 .2.1.3.2.8.5 1.5 1 2.3 1.5l.5.4c-4.9 1.9-9.7 3.7-14.5 5.6zM285.1 36.1c0 .1-.1.3-.2.4s-.2.4-.3.6c-.2.4-.4.8-.7 1.2l-.4.6c-.1.1-.2.3-.3.4-.4.6-.9 1.3-1.3 2l-.5.7-.3.5c-.3.4-.7.9-1.1 1.4l-1.2 1.5c-.1.2-.3.3-.4.5-.4.5-.8 1-1.3 1.4l-.3.3c-.4.5-.9.9-1.3 1.4l-1.4 1.4c-.4.4-.8.8-1.3 1.2l-.6.6-.5.5-.5.5-1 .9c-1.8 1.6-3.6 3.1-5.4 4.5-.5.4-.9.7-1.4 1l-.6.5c-.2.2-.5.3-.7.5l-.7.5c-.4.3-.9.6-1.3.9s-.9.6-1.3.8l-.6.4-1.2.8-.6.4-.6.3c-.8.4-1.6.8-2.3 1.2l-.4.2-.4.2-.3.1c-.3.1-.7.3-1 .3l-.3.1-.4.1-.3.1h-.3l-.4.1 7.1-5.9c.5-.4 1-.8 1.4-1.2.6-.6 1.3-1.2 1.9-1.8.8-.8 1.5-1.7 2.3-2.6.1-.2.3-.4.4-.6.3-.4.5-.8.8-1.2l.3-.5c0-.1.1-.1.1-.2.1-.2.2-.3.3-.5 0-.1.1-.1.1-.2.2-.4.4-.7.6-1.1l.3-.6c.1-.2.2-.4.3-.7l.3-.7c.4-1 .7-1.9 1.1-2.9s.7-1.9 1.1-2.9l16.5-7.8.5.4zM322.2 32.7c-.9 10.9-6.1 18.9-15.9 23.6l-.2.1c-7 3.5-14.6 5.8-22.5 6.8-.8.1-1.6.1-2.3-.3l4.2-1.5c5.8-2 11.8-3.7 16.9-7.4.4-.3.7-.5 1.1-.7 1.6-.9 3.3-1.5 4.8-2.5 5.2-3.3 9.4-8.2 11.8-13.9.6-1.4 1.4-2.8 2.1-4.2zM294.7 44.1l1.5 1.8c-5.3 4.3-10.5 8.5-17.1 10.9 5.3-4.1 9.9-9 13.6-14.5 5.2-7.9 7.3-17.4 6.1-26.7 4.5 5 2.6 18.3-4.1 28.5-.1 0 0 0 0 0zM325.4 62.9c-.9 3.8-2.3 7.4-4 10.9-.9 1.5-1.2 3.3-.8 5-1-2.1-2.1-4.1-3.3-6.1 2.9-3.4 5.1-7.4 6.4-11.8.4-1.4 1-2.7 1.7-4 .1 2 .5 4.2 0 6zM233.3 194.9c2.7.9 4.4 2.2 3.9 5s-2.2 4.5-4.8 5.6c-4.9 2.1-9.1.8-13.5-1.5.3.5.7.9 1.1 1.3 2 1.9 2.5 4 1.2 6.4s-2.9 4.2-5.9 4.1c-3.2-.1-6.5-.5-9.6-.8.3 2.9-1.2 4.5-4.8 3.7-8.1-1.9-14-6.8-18.6-13.6-.2-.3-.3-.7-.4-1 2.6 2.1 5.1 4.3 7.7 6.2 1.2.9 2.6 1.6 4 2.1 5.2 1.9 7.5.2 6.6-5.1 2.4 1 4.7 2.1 7.1 2.9 1.5.4 3.1.6 4.8.5 2.9-.1 4-2 2.9-4.7-1.2-3.2-2.5-6.4-3.9-9.7 1.8 1 3.5 2 5.2 3 3.2 2 6.7 2.2 10.3 1.8 1-.1 2.6-.9 2.7-1.7.1-1.2-.3-2.4-1.1-3.3-1.5-1.4-3.1-2.7-4.7-3.8 4.1 0 8.2.3 12.3-.1 4.5-.4 7.6-2.9 8.7-7.6.6 6.7-3.5 9.4-11.2 10.3zM265.2 96.4c-.6.6-1.3 1.2-2 1.7.3.4.5.7.7.7 3.8.4 5 1.4 4.3 5.2-.3 1.5-.7 2.9-1.3 4.3-.5 1.3-1.1 2.5-1.7 3.7-1.8 3.8-4.4 7.1-7.7 9.8l-.5-.4c.4-.6.9-1.2 1.3-1.8 2-3.3 4.3-6.5 5.7-10.1 2.2-5.5-.3-8.5-6.2-7.9-.5 0-1 .1-2.2.2 1.6-1.9 2.8-3.3 3.9-4.8l1.5-2.1c1.1-1.5 2.2-3 3.3-4.6 1.7-2.5 3.4-4.9 5-7.5.7-1.1.9-3.4.2-4.3s-2.8-1.1-4.2-1-3.1.8-4.7 1c3.4-1.7 6.7-3.8 10.8-3.7 2.8.1 4.2 2.3 3.3 5.3-1.6 5.5-4.4 10.5-8.1 14.8-.6.5-1 1-1.4 1.5zM134.6 135.1c-1.1-.4-2.2-.7-3.3-.9-.8 0-1.5.7-2.4.9-1.1.4-2.3.6-3.5.5-1.1-.2-2.1-1.2-3.8-2.3 4.7.4 9.1-3.4 13 1.8z"/><path class="st0" d="M134.6 135.1c-1.1-.4-2.2-.7-3.3-.9-.8 0-1.5.7-2.4.9-1.1.4-2.3.6-3.5.5-1.1-.2-2.1-1.2-3.8-2.3 4.7.4 9.1-3.4 13 1.8zM221.4 256.5l-1.4.1-.6-2 .8-.2 1.2 2.1zM233.3 194.9c2.7.9 4.4 2.2 3.9 5s-2.2 4.5-4.8 5.6c-4.9 2.1-9.1.8-13.5-1.5.3.5.7.9 1.1 1.3 2 1.9 2.5 4 1.2 6.4s-2.9 4.2-5.9 4.1c-3.2-.1-6.5-.5-9.6-.8.3 2.9-1.2 4.5-4.8 3.7-8.1-1.9-14-6.8-18.6-13.6-.2-.3-.3-.7-.4-1 2.6 2.1 5.1 4.3 7.7 6.2 1.2.9 2.6 1.6 4 2.1 5.2 1.9 7.5.2 6.6-5.1 2.4 1 4.7 2.1 7.1 2.9 1.5.4 3.1.6 4.8.5 2.9-.1 4-2 2.9-4.7-1.2-3.2-2.5-6.4-3.9-9.7 1.8 1 3.5 2 5.2 3 3.2 2 6.7 2.2 10.3 1.8 1-.1 2.6-.9 2.7-1.7.1-1.2-.3-2.4-1.1-3.3-1.5-1.4-3.1-2.7-4.7-3.8 4.1 0 8.2.3 12.3-.1 4.5-.4 7.6-2.9 8.7-7.6.6 6.7-3.5 9.4-11.2 10.3zM265.2 96.4c-.6.6-1.3 1.2-2 1.7.3.4.5.7.7.7 3.8.4 5 1.4 4.3 5.2-.3 1.5-.7 2.9-1.3 4.3-.5 1.3-1.1 2.5-1.7 3.7-1.8 3.8-4.4 7.1-7.7 9.8l-.5-.4c.4-.6.9-1.2 1.3-1.8 2-3.3 4.3-6.5 5.7-10.1 2.2-5.5-.3-8.5-6.2-7.9-.5 0-1 .1-2.2.2 1.6-1.9 2.8-3.3 3.9-4.8l1.5-2.1c1.1-1.5 2.2-3 3.3-4.6 1.7-2.5 3.4-4.9 5-7.5.7-1.1.9-3.4.2-4.3s-2.8-1.1-4.2-1-3.1.8-4.7 1c3.4-1.7 6.7-3.8 10.8-3.7 2.8.1 4.2 2.3 3.3 5.3-1.6 5.5-4.4 10.5-8.1 14.8-.6.5-1 1-1.4 1.5zM283.4 34.9c-4.8 1.7-9.6 3.5-14.4 5.4.3-.9.6-1.7.9-2.6s.6-1.7.9-2.6c.6-1.7 1.1-3.4 1.7-5.2.2-.7.4-1.3.6-2 2.2 1.3 4.4 2.7 6.5 4.1.1.1.1.2.2.2.1.1.3.3.5.4l.1.1c.1 0 .2.1.3.2.8.5 1.5 1 2.3 1.5l.4.5zM285.1 36.1l-.2.4-.3.6c-.2.4-.4.8-.7 1.2l-.4.6c-.1.1-.2.3-.3.4-.4.6-.9 1.3-1.3 2l-.5.7-.3.5c-.3.4-.7.9-1.1 1.4l-1.2 1.5c-.1.2-.3.3-.4.5-.4.5-.8 1-1.3 1.4l-.3.3c-.4.5-.9.9-1.3 1.4l-1.4 1.4c-.4.4-.8.8-1.3 1.2l-.6.6-.5.5-.5.5-1 .9c-1.8 1.6-3.6 3.1-5.4 4.5-.5.4-.9.7-1.4 1l-.6.5c-.2.2-.5.3-.7.5l-.7.5c-.4.3-.9.6-1.3.9s-.9.6-1.3.8l-.6.4-1.2.8-.6.4-.6.3c-.8.4-1.6.8-2.3 1.2l-.4.2-.4.2-.3.1c-.3.1-.7.3-1 .3l-.3.1-.4.1-.3.1h-.3l-.4.1 7.1-5.9c.5-.4 1-.8 1.4-1.2.6-.6 1.3-1.2 1.9-1.8.8-.8 1.5-1.7 2.3-2.6l.4-.6c.3-.4.5-.8.8-1.2.1-.2.2-.3.3-.5 0-.1.1-.1.1-.2.1-.2.2-.3.3-.5 0-.1.1-.1.1-.2.2-.4.4-.7.6-1.1l.3-.6c.1-.2.2-.4.3-.7s.2-.4.3-.7c.4-1 .7-1.9 1.1-2.9s.7-1.9 1.1-2.9l16.5-7.8.5.4zM296.2 45.9c-5.3 4.3-10.5 8.5-17.1 10.9 5.3-4.1 9.9-9 13.6-14.5.7.6 1.3 1.2 2 1.8s1 1.2 1.5 1.8zM261.8 22.1l-1.8-.8-1.3-.5-.8-.3c-.5-.2-1-.4-1.4-.6l-1.3-.5c-1.7-.7-3.4-1.3-5.1-1.9-.6-.2-1.1-.4-1.7-.6l-1.9-.6c-.6-.2-1.3-.4-1.9-.6s-1.2-.4-1.9-.5h-.2l-1.6-.4-.5-.1.3.8-3.2 1.3.2.2.2.2.2.2.2.2c.2.2.4.5.6.7l.2.2c.5.8.9 1.7 1.2 2.6l.4 1.4c.3 1 .6 1.9.9 2.9.1.4.2.8.4 1.3.2.8.4 1.5.6 2.3 0 .3.1.5.2.7l.3 1.5.1.6 5.4 3.3c2.9 1.6 5.7 3.2 8.5 5l.7.5.6-1.2c.2-.4.3-.5.4-.8.6-1.3 1.2-2.7 1.7-4 .1-.4.3-.7.4-1.1.5-1.2.9-2.3 1.2-3.4l.2-.6c.3-1.1.6-2.1.9-3.1 0-.2.1-.5.1-.7s.1-.3.1-.4l.1-.3c0-.2 0-.3.1-.5l.1-.4c0-.3.1-.6.1-.9l-2-1.1zm-25.4-8.4c-.4-.1-.9-.2-1.4-.3l-.8-.2-.8-.1-.8-.1c-1.6-.3-3.3-.6-4.9-.8-5.2-.7-10.4-1.1-15.6-1.2h-5.9c-4.9.2-9.8.6-14.7 1.4l-1.4.2-.3.1 1.4.3c3.9.8 7.8 1.8 11.6 2.8s7.7 2.2 11.5 3.5l3 1c6.4-2.3 12.8-4.5 19.3-6.5l-.2-.1zM202.3 18c-5-1.7-10.1-3.3-15.2-4.8-4.7.9-9.4 2.1-14 3.6 3.3.7 6.6 1.6 9.9 2.6 5.8 1.8 11.4 4.1 16.9 6.7l1 .5 3.4-1.3c3-1.2 6-2.3 9.1-3.4-3.8-1.4-7.4-2.6-11.1-3.9zm-22.9 45.7c-1.9-4.8-3.9-9.5-5.8-14.3-.6-1.4-1.1-2.8-1.7-4.2l-1.2.6-5 2.5c-5.7 2.9-11.5 5.8-17.1 8.8l-.1.5c-.2 1.3-.5 2.5-.7 3.8l-.6 3.8c-.2 1.3-.4 2.6-.5 3.9l-.4 3.9c-.1.6-.2 1.3-.2 1.9l-.2 1.9-.3 3.9c-.4 5.7-.5 11.4-.4 17.1 3.4-2 6.9-3.9 10.4-5.8 4.4-2.4 8.8-4.7 13.3-7s8.9-4.5 13.4-6.8L185 77l-5.6-13.3zm-22.1 90.8v4.1c.1.1.1.3.2.4l1 2c.1-.4.1-.8.2-1.2.1-.8.2-1.7.3-2.5 0-.3.1-.6.1-.9.1-.6.2-1.1.3-1.7s.2-1.1.3-1.7l-2.4 1.5zm29.8-72.4l-2.3 1.2c-13.2 6.6-26.3 13.2-39.3 20.2.5 11.2 1.8 22.3 3.9 33.3 2.4 1.4 4.6 3.1 6.6 4.9.7.8 1.2 1.8 1.2 2.9.1 3 .1 6 .1 9l2.6-1.6c.1-.7.3-1.4.4-2.1 0-.2.1-.4.1-.6s.1-.5.2-.7.1-.6.2-1l.2-.9c.1-.2.1-.4.2-.6.3-.9.5-1.8.9-2.7l.2-.6c.2-.7.5-1.3.8-2l.2-.5c.1-.2.1-.4.2-.5.1-.2.2-.4.3-.5l.3-.5c.1-.2.2-.4.3-.5.2-.4.4-.7.6-1l.3-.5c.3-.4.5-.9.8-1.3l.5-.7c2-2.9 3.8-6 5.6-9 .3-.5.6-1 1-1.6l.6-.9c.2-.4.4-.7.7-1.1.1-.2.2-.3.3-.5.4-.6.7-1.1 1.1-1.7s.8-1.2 1.3-1.8.8-1.1 1.1-1.6l1.7-2.4 2.4-3.3c3.6-4.8 7.4-9.4 11.2-14-2.2-5.1-4.4-9.9-6.5-14.8zm-62.8 71.7l9.3 11.7c-.8-2.4-1.8-4.6-3-6.8-.1-.2-.3-.4-.4-.6s-.2-.3-.3-.5c-.5-.7-1-1.3-1.5-2-.1-.1-.2-.3-.3-.4s-.3-.4-.5-.6-.4-.5-.6-.7c-1.2-1.3-2.4-2.5-3.7-3.6l-.6-.5c-.3-.3-.6-.5-.9-.7l-.7-.5-.8-.6c-.3-.2-.5-.4-.8-.6 1.1 4.2 2.4 8.4 3.9 12.5.8 1.9 1.6 3.9 2.5 5.9-.4-2.9-.8-5.9-1.2-8.9l-.4-3.1zm19.5-25.8c-1.3-6.2-2.2-12.6-2.8-18.9-.1-1-.1-2.1-.2-3.1-3 1.6-6 3.3-9 4.9-2.6 1.4-5.1 2.9-7.7 4.4l-.9.6-5.2 3.8-1.3 1.1c0 2.5 0 5 .1 7.4 0 .7.1 1.3.1 2l.1-.2.2-.2.2-.1c.1-.1.3-.2.4-.3l.2-.1.2-.1.2-.1c.1-.1.3-.2.5-.2h.1l.6-.2.3-.1.6-.2.3-.1.7-.1h.3c.2-.1.5-.1.7-.1l.7-.1h1.1c1-.1 2.1-.1 3.2 0h.5l1.3.1 1.2.1c.4.1.9.1 1.3.2l.7.1c.2 0 .4.1.6.1l.4.1.4.1.7.1c.6.1 1.2.3 1.8.4l.5.1.8.2.5.2.7.2.6.2.6.2 1.1.5.5.3.5.3c.3.2.7.4 1 .6l.2.1c.2.1.5.3.7.5l.4.3c.1.1.3.2.4.3-.4-1.9-.8-3.6-1.1-5.3zm-26.9 2.9l-.3-.1c0 .6.1 1.2.2 1.8l.2.1 1.5.4 1.8.4c.1-.2.1-.5.2-.7l-3.6-1.9zm9.8-61.6c-.7.4-1.3.8-2 1.2-1.6 5.5-3 11.1-4.1 16.8-1.4 6.7-2.5 13.5-3.2 20.4-.3 2.6-.5 5.1-.6 7.7l.1-.1c4.2-2.8 8.4-5.5 12.7-8.1 3.6-2.2 7.3-4.4 11-6.6-.1-2.2-.1-4.4 0-6.6.1-5.7.5-11.4 1.3-17 .7-5.7 1.7-11.3 3-16.8.1-.4.2-.8.3-1.1-6.3 3.2-12.4 6.6-18.5 10.2zm22.7-42c-4.2 2.4-8.3 5.1-12.1 8l.1.1c-.6 1.2-1.3 2.4-1.9 3.6-1.1 2.8-2.3 5.7-3.3 8.6-2 5.5-3.9 11-5.6 16.6 6.6-4.3 13.4-8.4 20.3-12.2.1-.3.2-.7.3-1v-.1c.1-.5.3-1 .4-1.4 1.5-5 3.1-10.1 5-15 1.5-3.9 3.3-7.8 5.2-11.5-2.8 1.2-5.6 2.7-8.4 4.3zm13.1-6.5c-1.4.6-2.9 1.3-4.3 1.9-3.5 8.8-6.3 17.9-8.3 27.3 0 .1 0 .2-.1.2 4.4-2.4 8.8-4.7 13.3-6.9 2.2-1.1 4.4-2.2 6.6-3.2-2.3-6.4-4.8-12.9-7.2-19.3zM145 133.3l-1.4-.3-.3-.1-3.1-.7c.9.4 1.9.8 2.8 1.2l.8.4.3.1 1.3.6c-.2-.4-.3-.8-.4-1.2zm91.1-106.1v-.8-.6-1.5c0-.4 0-.8-.1-1.1v-.1c0-.5-.1-.9-.1-1.4s-.1-.8-.1-1.2v-.2c-.1-.4-.1-.9-.2-1.3l-.2-1.4c-3.9 1.6-7.8 3.3-11.7 4.9l2.2.9c1.9.8 3.7 1.5 5.5 2.3 1.6.8 3.2 1.5 4.8 2.3-.1-.3-.1-.5-.1-.8zm-.6 3.7c-3.6-1.7-7.2-3.2-10.9-4.7-1.7-.7-3.3-1.3-5-2-4.3 1.8-8.6 3.7-12.9 5.5 3.1 1.7 6 3.5 8.9 5.4.6.4 1.3.8 1.9 1.3s1.3.9 1.9 1.3c1.2.9 2.5 1.8 3.7 2.7 2.4 1.8 4.8 3.8 7.1 5.8 1.3 1.1 2.5 2.3 3.8 3.4.2-.8.3-1.5.5-2.3.1-.4.2-.9.3-1.3s.1-.9.2-1.3.1-.9.2-1.3l.1-1c.1-.7.2-1.3.3-2l.1-1c0-.3.1-.7.1-1s.1-.6.1-.9 0-.6.1-.9c.1-.9.1-1.8.2-2.6 0-.9.1-1.8.1-2.8v-.1l-.8-.2zm4.6 31.7c-.1.1-.1.3-.2.4-.3.7-.6 1.3-.9 2-.2.3-.3.6-.5 1l.4-.2.3-.2.4-.2c.3-.2.5-.3.8-.5l.3-.2.3-.3.3-.3c-.3-.5-.8-1-1.2-1.5zm-57.6-41.8c-1.7-.7-3.4-1.3-5.1-1.9-2-.5-4.1-1-6.1-1.3v-.1c-2.8 1-5.6 2-8.4 3.2 3.1 6.2 6.1 12.3 9 18.6 3.9-1.8 7.7-3.6 11.6-5.3 4.7-2.1 9.5-4.1 14.2-6-4.9-2.8-10-5.2-15.2-7.2zm53.6 6.4v-.8-.6-1.5c0-.4 0-.8-.1-1.1v-.1c0-.5-.1-.9-.1-1.4s-.1-.8-.1-1.2v-.2c-.1-.4-.1-.9-.2-1.3l-.2-1.4c-3.9 1.6-7.8 3.3-11.7 4.9l2.2.9c1.9.8 3.7 1.5 5.5 2.3 1.6.8 3.2 1.5 4.8 2.3-.1-.3-.1-.5-.1-.8zm-.6 3.7c-3.6-1.7-7.2-3.2-10.9-4.7-1.7-.7-3.3-1.3-5-2-4.3 1.8-8.6 3.7-12.9 5.5 3.1 1.7 6 3.5 8.9 5.4.6.4 1.3.8 1.9 1.3s1.3.9 1.9 1.3c1.2.9 2.5 1.8 3.7 2.7 2.4 1.8 4.8 3.8 7.1 5.8 1.3 1.1 2.5 2.3 3.8 3.4.2-.8.3-1.5.5-2.3.1-.4.2-.9.3-1.3s.1-.9.2-1.3.1-.9.2-1.3l.1-1c.1-.7.2-1.3.3-2l.1-1c0-.3.1-.7.1-1s.1-.6.1-.9 0-.6.1-.9c.1-.9.1-1.8.2-2.6 0-.9.1-1.8.1-2.8v-.1l-.8-.2zm-8 18.3c-4.3-4-8.9-7.8-13.7-11.3-3.3-2.4-6.7-4.7-10.2-6.8-8.6 3.7-17.1 7.5-25.7 11.3l-2.1 1-1.4.7c.7 1.4 1.3 2.8 2 4.2 2.2 4.6 4.3 9.3 6.5 14l5.9 12.9c14.5-7 29.1-13.7 43.9-20.1.1-.3.1-.5.2-.8-1.9-1.7-3.7-3.4-5.4-5.1zm-36.6 31.1c1.9 4.3 3.8 8.5 5.6 12.8 3.2-3.8 6.5-7.6 9.6-11.4 1.6-1.8 3.5-3.1 5.7-4.1 2.5-1.2 4.3.2 4.3 3 0 1.6-.4 3.2-.6 5l.5-.4.5-.4c.2-.1.3-.3.5-.4.6-.5 1.1-1.1 1.7-1.6l.5-.6c.1-.2.3-.3.4-.5l.4-.5c.3-.3.6-.7.8-1 .1-.2.3-.4.5-.6l.5-.7c.5-.7.9-1.4 1.4-2.1l.3-.5.3-.5c.2-.3.3-.6.5-.8.3-.6.7-1.2 1-1.7v-.1c.3-.5.6-1.1.8-1.6.1-.2.1-.3.2-.4l.4-.7c.1-.3.3-.7.5-1s.3-.7.5-1l.4-1c.3-.6.6-1.3.8-2l.1-.2c.3-.7.6-1.4.8-2.2l.6-1.8c-13 6.1-26.3 12.5-39.5 19zm-72 38l-2.2 1.3v.9l1.2-1 3.7-2.8-2.7 1.6zM251.9 50.9c0 .1-.1.1-.1.2-.6.9-1.1 1.8-1.7 2.7-.2.3-.3.5-.5.8-1.3 2-2.8 3.9-4.3 5.7-.2.3-.4.5-.7.8l-1.6-1.8c-.4-.5-.8-.9-1.2-1.3 0-.1.1-.3.1-.4s.1-.3.1-.4c.1-.3.2-.7.3-1v-.1c0-.1.1-.3.1-.4s.1-.5.2-.8c3.1-1.5 6.2-2.8 9.3-4zM256.6 42.4c-.1.2-.2.4-.3.7 0 .1-.1.1-.1.2l-.8 1.5-.6 1.1-.3.5-.9 1.5c-3.5 1.5-7 2.9-10.5 4.4l.3-1.8.1-.7c.1-.4.1-.8.2-1.2l.1-.9v-.5l.1-.8v-.5V43.7v-1.3c0-2-.1-4-.3-6.1 0-.3-.1-.7-.1-1.1 0-.2 0-.3-.1-.5.8.4 1.7.9 2.5 1.3 3.8 2.1 7.3 4.2 10.7 6.4zM171.8 237.1c-.5-.1-1-.3-1.5-.4l-1.3-.4-.2-.1-1.3-.4h-.1l-1.3-.5-1.2-.5-.2-.1-1.3-.5-1.4-.6-1.3-.6-.9-.4-1.5-.7-.7-.3-1-.5-1.1-.6-.3-.1c-.1-.1-.2-.1-.3-.2l-1.2-.7c-.4-.2-.8-.5-1.2-.7l-2.4-1.5c.7 1.4 1.1 3 2.1 4.1l.5.5.2.2c2 2 4.3 3.8 6.4 5.6s4.5 3.3 6.6 5.2c2 1.6 2.9 4.1 2.5 6.6l-1.1-.3c-.9-.3-1.7-.7-2.6-1-6.6-2.8-13-6.1-19.2-9.9-.1 0-.1-.1-.2-.1-3-1.8-5.8-3.7-8.6-5.7h.3c-14.5-10.9-26.5-24.8-35-40.8 4.4-3.4 8.9-6.8 13.5-10 3.8-2.8 7.7-5.4 11.6-8.1l.8 5.7.8 5.7c.5 2.8 1.2 5.6 2 8.4.7 2.4 3 2.7 4.7 3.8l.5-.4-1.4-3.7c2.6-.5 2.6-.5 1-6.4 1.3 2.5 2.7 5 4 7.6.7 1.4.1 2.2-1.1 2.2v3.6h-2.1c.3 9.9 6.2 16.8 13.4 22.4l1.1.9 1.4 1 1 .7 1.2.8c.7.5 1.4.9 2.1 1.4l1 .6.3.2c1.4.9 2.9 1.8 4.3 2.6l2.2 1.3.7.4c.6.4 1.2.7 1.8 1.1l2.5 1.6c1.1.7 1.8 1.3 2.5 2z"/><path class="st0" d="M127 173.2c-3.9 2.7-7.9 5.4-11.7 8.3-4.5 3.3-9 6.7-13.4 10.1-2.4-4.5-4.5-9.1-6.3-13.8v-.1c-3.2-8.8-5.5-18-6.9-27.3-.5-3.5-.8-7.1-1-10.7l.4-.3c1.9-1.6 3.9-3.2 5.9-4.7 4-3 8.1-5.8 12.3-8.5l7.5-4.8v1.5l-.9.7c-1.6 1.4-3.2 2.9-4.9 4.3-1.6 1.4-3.1 3-4.6 4.6 1.6-1.5 3.1-3 4.7-4.5s3.3-2.9 4.9-4.3l.8-.6c0 1.8.1 3.5.2 5.3l.3 3.6h-1.6c-5 0-8.9 2.9-10.7 8.1-.1.4-.2.8-.2 1.3 4.4-3 8-.3 11.2 1.7l3.3 2.1c.3 1.4.7 2.8 1.1 4.1 1.8 6.8 4.6 13.3 8.1 19.4.4.7.8 1.3 1.3 2 0 .7.1 1.6.2 2.5zM121.5 72.4c-1.4 4.7-2.6 9.4-3.7 14.2-.8 3.4-1.4 6.8-2 10.3s-1 6.9-1.4 10.4-.5 6.7-.6 10.1c-3.1 2.1-6.1 4.3-9.1 6.6-4 3-7.9 6.2-11.7 9.6-1.8 1.7-3.6 3.3-5.3 5.1-.1-1.5-.1-3.1-.1-4.6 0-14.5 2.6-29 7.6-42.6 4.1-3.6 8.4-7 12.9-10.1.7-.5 1.5-1.1 2.3-1.6l2.3-1.6c1.5-1.1 3.1-2 4.6-3l2.3-1.5 1.9-1.3zM135.8 36.3l-4 9.6c-.9 2-1.7 3.9-2.5 5.9-.8 1.8-1.5 3.6-2.2 5.5l-3.6 8.8c-5.6 3.8-10.9 7.8-16.1 12.2l-.8.6c-1.3 1-2.7 2-3.9 3-1.3 1-2.5 2.2-3.5 3.5 1.1-1.2 2.3-2.4 3.6-3.4 1.1-.9 2.2-1.7 3.3-2.5-3.5 3-6.8 6.2-9.9 9.6.7-1.7 1.4-3.5 2.2-5.2.7-1.5 1.4-3 2.1-4.4 1.5-3 3.1-5.9 4.8-8.8 2.7-4.5 5.8-8.9 9.1-13.1 1.8-2.3 3.7-4.5 5.7-6.7 3.2-3.3 6.4-6.5 9.8-9.6l.2-.2c1.7-1.6 3.7-3.2 5.7-4.8zM137 35.4zM250.2 283.8c-1.4.3-2.9.4-4.4.5-2.5-.1-4.7-1.8-5.4-4.3-3.1-8.7-8.1-16.4-13.2-24 3.7-.5 7.4-1.2 11-2-2 .5-4.1 1-6.2 1.4.6.9 1.1 1.6 1.6 2.3 5.1 7.3 10.3 14.6 15.4 22 .8 1.1.9 2.7 1.2 4.1zM249 306c-1.7.3-3.4.4-5.1.3-3.8-.6-6.5-2.5-7.2-6.7-.4-2.3-1.1-4.6-2.1-6.8-4.6-11.3-9.3-22.6-14-33.9-.3-.7-.6-1.5-.8-2.3l-.6-2 .8-.2 1.3 2.1c4.6 7.2 9.2 14.4 13.6 21.7 4.5 7.5 8.9 15.1 13.1 22.8.9 1.5.7 3.4 1 5zM223.3 282.5c-3.1.2-5-1.2-5.2-3.6-.6-7.1-1.1-14.1-1.7-21.2v-.9-.3c0 .1.1.2.1.3 2.7 8.5 5.8 16.8 6.8 25.7zM275.8 166.3l.2 2.9c-7.4-1.1-14.1-5.1-18.6-11.1l3.1 1.8c4.7 3 9.7 5.5 15.3 6.4zM305.8 152.8c-.4 5-1.1 10-2 15-1.9 11.2-4.9 22.2-8.9 32.9-4.4 1.6-8.9 3.3-13.3 5l-2.9 1.1.1-1.4c.2-2.8.3-5.6.4-8.4s.2-5.6.2-8.5c.1-4.2 0-8.4-.1-12.6.5-1.3.7-2.6.6-4 0-.7-.2-1.4-.8-1.8-.1-1.2-.1-2.4-.2-3.6.6-.2 1.2-.5 1.8-.9 1.9-1.4 3.4-3.2 4.2-5.4 6.9-2.6 13.9-5.1 20.9-7.4zM251.8 219.5c8.1-3.5 16.3-6.8 24.6-9.9-.1 4.2-.4 8.4-.6 12.6-.2 2.8-.3 5.6-.5 8.4s-.5 5.6-.7 8.4h.1c-3.7 2.2-7.4 4.3-11.3 6.1l.3-.1c-4-8.5-8-17-11.9-25.5z"/><path class="st0" d="M263.4 245.1c-8 3.8-16.4 6.7-25 8.7h-.1c-3.6.8-7.3 1.5-11 2l-1.3-2c-.9-1.3-2.4-2.1-3.7-3.1-3.9-3.1-7.9-6.1-11.8-9.3-.4-.4-.8-.8-1-1.3-.1-.2-.2-.4-.2-.6 0-.1-.1-.2-.1-.3l.3.2.5.4c.4.4.9.7 1.4 1.1 4 2.6 8 5.2 12.1 7.7 1 .4 2.1.7 3.2.7l.4-.8c-2.7-3-5.3-6-8.1-8.9-1-1.1-2.1-2.1-3.1-3.2l.1-.1c2.4-1.3 4.9-2.6 7.4-3.9l2.9-1.5 1.9-.9c5.8-2.9 11.7-5.6 17.7-8.3l4.8-2.1 5.7 11.5c2.3 4.9 4.7 9.5 7 14z"/><path class="st0" d="M276.7 196.9c0 2.8 0 5.6-.1 8.4l-.1 2.3c-8.5 3.4-16.9 6.9-25.3 10.6l-1.1.5-4.7 2.1c-5.9 2.7-11.8 5.6-17.6 8.6l-2.4 1.2-2.9 1.5-7.2 3.9c-1.2-1.2-2.5-2.4-3.7-3.6-.8-.7-1.8-1.2-2.8-1.7-6.3-3.5-12.7-7-19-10.6-1.7-1.1-3.1-2.6-4.1-4.3 3.9 2.4 7.7 4.8 11.6 7.1s7.4 4.5 12 5.1c5.4.8 8.2-.3 10.9-5.2 4.9 3.4 7.3 2.9 9.6-2 6.4.2 6.8 0 8-3.7 1.3-.1 2.6-.3 3.9-.6 2.8-1.1 3.1-2.2 1.8-5-.6-1.3-1.1-2.6-1.6-4-.1-.4-.1-.8-.1-1.3 1.4 1.7 2.6 3.3 3.9 4.7 1 1.3 2.9 1.5 4.2.5l.3-.3c1.3-1.1 2.4-2.6.9-4.6-1.7-2.4-3.2-4.9-4.7-7.4l.5-.4c1.8 1.9 3.7 3.8 5.4 5.9 1 1.3 2 1.4 3.1.4.9-.8 1.8-1.8 2.5-2.8.9-1.3.8-2.5-.4-3.8-2.1-2.4-4.1-4.9-5.9-7.6 2.1 1.7 4 3.5 5.9 5.5 1.6 1.8 3.1 1.6 4.9.7 2-1.1 2.2-2.4.6-4.2l-7.8-8.7c-.1-.3-.2-.7-.3-1 2.9 2.2 5.5 4.2 8 6.2 2.3 1.8 3.6 1.7 5.7-.4.2-.2.4-.5.6-.8 2.8-3.6 2.7-4-1.2-6.1-5.5-3-7.5-4.6-9.9-7.9 3.9 2.2 8 4.4 12 6.8 1.7 1.1 3.1.8 4.6-.3.5-.4 1-.7 1.5-1.1.1 2.9.2 5.8.2 8.7.3 3.1.4 5.9.3 8.7zM317.2 195.5c-10.3 17.7-24.8 32.6-42.2 43.4.4-2.7.8-5.5 1.2-8.2s.7-5.6 1-8.4c.5-4.5.9-9 1.3-13.4l3.7-1.4c3.9-1.4 7.7-2.8 11.6-4.2-2.1 5.5-4.5 10.9-7.2 16.1-2.7 5.4-5.8 10.7-9.2 15.7l.2.2c1-1.2 1.9-2.4 2.8-3.6s1.8-2.5 2.6-3.8c1.7-2.6 3.3-5.2 4.8-7.8 1.5-2.7 2.9-5.4 4.3-8.1.7-1.4 1.3-2.8 2-4.1s1.3-2.8 1.9-4.2c.2-.4.4-.8.5-1.2 1.4-.5 2.7-.9 4.1-1.4 5.5-2.1 11.1-3.9 16.6-5.6zM333.2 144.4c-1.4 17-6.4 33.5-14.6 48.5l-21 6.6c1.8-4.4 3.3-8.9 4.7-13.4 1.8-5.9 3.2-11.9 4.4-17.9 1-5.5 1.8-11 2.3-16.6 4.2-1.4 8.3-2.7 12.5-3.9l11.7-3.3zM333.7 134c0 2.6-.1 5.2-.3 7.8-4.2 1.2-8.4 2.4-12.6 3.7-3.9 1.2-7.8 2.5-11.6 3.8l-2.2.7-1 .4c-6.8 2.3-13.6 4.8-20.3 7.4 0-.2.1-.3.1-.5.1-1.1.1-2.1 0-3.2-7.6 1.5-14.6.8-21.3-2.6 3.2.5 6.5 1.2 9.8 1.5 2.9.3 5.9.2 8.8-.1 5.3-.6 9.6-6 9.5-11.7-10.7 1.1-21.4.5-31.7-3l4.2.6c8.6 1.3 17.3 1 25.7-.8 5.2-1.1 9.2-8 7.5-13.4-10.3 4.3-20.8 4.2-31.3.6 2.3.2 4.5.5 6.8.6s4.7.2 7.1.1c5.9 0 11.8-1.2 17.3-3.5 2.7-1.2 3.9-3.4 4.4-6.1.4-2.1-.8-2.9-2.8-2.2-6.6 2.5-13.9 2.5-20.6.2 4.5 0 9.2.4 13.6-.1 5.2-.6 9.9-3.5 12.6-8 .6-.9.6-2.2 1-4-5.4 2.7-11.3 4-17.3 3.8 3.7-1.3 7.7-2.5 11.5-4.1 5.7-2.5 9.3-7.2 11.6-12.8.5-1.3.1-3.1.1-5-13.1 4.6-25.6 8.8-39.1 6.3.4-.1.8-.2 1.2-.2 9.5.3 19-1.8 27.5-6 5.8-2.7 11-6.6 15.3-11.4 1.2 2 2.3 4 3.3 6.1 8.7 17 13.2 35.9 13.2 55.1zM144.9 133.1v.2h.2c0-.1-.1-.1-.2-.2zm-28.3-2.5c.1 0 .1 0 0 0zM274.8 239l.2-.1v.1h-.2z"/><path class="st0" d="M145.2 133.4h-.2v-.2c.1 0 .1.1.2.2zM116.7 130.7c-.1-.1-.1 0 0 0z"/></g></g></svg>
